<svg width="297" height="296" viewBox="0 0 297 296" fill="none" xmlns="http://www.w3.org/2000/svg">
<path d="M166.411 23.2119C148.979 22.0007 135.5 25.3298 121.329 34.313L115.874 37.7868L113.446 36.8132C107.976 34.6468 96.9389 33.1639 89.2956 33.6468C85.1202 33.8953 77.7257 35.4331 73.4125 36.9132C41.7619 48.0484 24.2191 80.9408 32.8378 113.111C35.962 124.789 43.0879 136.336 51.7978 143.861L54.9056 146.526L46.4528 190.44C37.106 238.71 37.2078 237.924 39.2011 243.746C41.1255 249.404 45.6541 254.609 50.8745 257.281C52.7993 258.258 64.3126 259.883 124.469 271.531C192.532 284.711 195.889 285.311 198.523 284.965C204.691 284.045 209.93 281.939 213.751 277.545C217.773 272.888 217.574 273.655 226.921 225.384L235.422 181.48L239.358 180.128C274.278 167.965 291.027 127.218 274.976 93.6596C266.239 75.3582 250.007 62.7527 230.407 58.9576C227.303 58.3564 223.578 57.8366 222.115 57.8552L219.498 57.8519L215.735 52.5933C207.329 40.8992 196.646 32.3882 184.328 27.6375C180.161 26.0253 169.64 23.4344 166.411 23.2119ZM181.529 38.9738C199.911 46.459 213.471 64.2849 216.095 84.5232C216.754 89.1806 216.7 96.2166 216.024 99.7095C215.338 103.251 215.673 105.681 217.098 107.417C219.569 110.513 224.478 109.853 226.288 106.227C227.216 104.293 228.163 96.0204 228.081 90.4679C228.02 85.3223 227.03 78.7384 225.583 73.4754L224.414 69.3735L228.586 70.1814C239.647 72.3232 250.756 79.1551 258.314 88.4704C264.212 95.7025 268.839 107.42 269.575 116.874C271.371 141.129 255.886 163.397 232.282 170.403C225.182 172.501 226.536 168.888 219.89 202.431L212.005 242.629L133.123 227.355L54.0958 212.052L61.6595 171.691C67.8407 138.209 67.806 142.028 62.0504 137.44C42.7198 122.121 36.6562 95.7307 47.3858 73.8503C51.5978 65.3545 60.2637 56.2111 68.4347 51.7032C78.9236 45.8824 91.7799 43.6909 102.841 45.8327L107.013 46.6406L104.398 50.0097C101.091 54.3522 97.7144 60.0907 95.7375 64.8417C93.5884 69.9621 91.3796 77.9901 91.5187 80.131C91.8438 84.1702 96.152 86.615 99.5997 84.6654C101.57 83.5873 102.788 81.4574 103.474 77.916C104.15 74.4231 106.726 67.8755 109.076 63.8005C115.988 51.499 127.683 41.7847 141.145 37.2443C153.805 32.9511 168.19 33.522 181.529 38.9738ZM209.485 255.127C206.953 267.421 206.916 267.615 205.194 269.748C203.059 272.455 199.649 274.211 196.316 274.27C192.682 274.321 59.9504 248.62 56.5984 247.216C53.5281 245.916 51.0197 243.015 50.0497 239.706C49.2486 237.085 49.2862 236.891 51.5267 224.541L51.3812 224.512L130.584 239.949L209.63 255.155L209.485 255.127Z" fill="black" fill-opacity="0.04"/>
<path d="M86.3748 113.369C85.4185 113.888 84.3496 114.99 83.9379 115.816C82.2334 119.16 82.8368 127.481 85.3337 136.42C87.9981 145.795 93.5198 158.088 96.0126 160.03C97.8435 161.492 100.479 161.398 102.582 159.893C104.985 158.144 105.414 155.408 103.783 151.871C96.7313 136.564 93.9981 127.025 94.4557 119.463C94.7441 114.335 90.4407 111.086 86.3748 113.369Z" fill="black" fill-opacity="0.04"/>
<path d="M148.115 125.676C146.725 126.615 145.984 127.579 145.441 129.084C145.07 130.22 143.32 138.74 141.623 148.025C138.64 164.208 138.548 164.945 139.264 166.442C139.657 167.273 140.789 168.449 141.781 169.043C143.317 169.945 143.812 169.99 145.486 169.66C149.319 168.842 149.3 168.939 153.091 150.144C154.972 140.946 156.519 132.437 156.599 131.245C156.715 128.046 154.828 125.315 152.063 124.779C150.414 124.46 149.678 124.62 148.115 125.676Z" fill="black" fill-opacity="0.04"/>
<path d="M210.211 137.7C208.763 138.678 208.09 139.554 207.491 141.351C205.093 148.537 198.997 156.366 186.741 167.935C183.908 170.607 183.285 173.305 184.86 175.825C186.25 178.007 188.66 179.077 190.904 178.404C193.942 177.533 203.653 168.189 209.624 160.487C215.277 153.126 218.943 145.632 218.61 141.893C218.43 139.442 216.44 137.245 214.063 136.785C212.51 136.484 211.717 136.683 210.211 137.7Z" fill="black" fill-opacity="0.04"/>
</svg>
