<svg width="609" height="384" viewBox="0 0 609 384" fill="none" xmlns="http://www.w3.org/2000/svg">
<g clip-path="url(#clip0_1_141)">
<path d="M361.055 11.7805C404.859 -11.6761 460.455 0.620975 489.93 42.2127L488.927 42.9252C459.816 1.84681 404.9 -10.2955 361.635 12.8664C357.959 14.8347 354.411 17.0328 351.011 19.4476C306.52 51.0291 295.997 112.948 327.553 157.475L326.549 158.187C294.601 113.106 305.255 50.4172 350.3 18.4434C353.742 15.9991 357.334 13.7737 361.055 11.7805Z" fill="#E6E6E6"/>
<path d="M593.11 112.043L449.035 100.825C446.799 100.649 444.723 99.5912 443.265 97.8852C441.806 96.1792 441.084 93.9639 441.255 91.7252L447.501 21.6677C447.677 19.4294 448.734 17.3525 450.438 15.8928C452.143 14.4331 454.357 13.7097 456.594 13.8813L600.669 25.0988C602.905 25.2754 604.98 26.3328 606.439 28.0388C607.898 29.7448 608.62 31.9602 608.449 34.1989L602.203 104.256C602.026 106.495 600.97 108.571 599.265 110.031C597.561 111.491 595.347 112.214 593.11 112.043Z" fill="#E6E6E6"/>
<path d="M559.078 96.2157C557.984 96.2157 556.887 96.1729 555.785 96.0873L462.674 88.8378C460.813 88.693 458.998 88.1825 457.333 87.3356C455.669 86.4887 454.187 85.3219 452.973 83.9019C451.759 82.4819 450.836 80.8365 450.258 79.0596C449.679 77.2827 449.456 75.4092 449.6 73.5459L451.724 46.2311C452.02 42.4696 453.796 38.9794 456.66 36.5263C459.525 34.0732 463.245 32.8575 467.004 33.1459L587.407 42.5203C591.166 42.8173 594.653 44.5941 597.104 47.461C599.555 50.3278 600.769 54.0505 600.482 57.8125C599.669 68.2513 594.957 78.0006 587.284 85.1178C579.611 92.235 569.54 96.1975 559.078 96.2157V96.2157Z" fill="white"/>
<path d="M584.526 64.2349L466.494 55.045C466.248 55.0259 466.009 54.9585 465.789 54.8466C465.569 54.7347 465.373 54.5806 465.213 54.3931C465.053 54.2055 464.931 53.9882 464.854 53.7535C464.778 53.5188 464.748 53.2713 464.767 53.0252C464.787 52.7791 464.854 52.5392 464.966 52.3192C465.078 52.0991 465.232 51.9033 465.419 51.7428C465.606 51.5823 465.824 51.4603 466.058 51.3838C466.293 51.3074 466.54 51.2778 466.786 51.297L584.818 60.4868C585.063 60.5059 585.303 60.5734 585.523 60.6852C585.743 60.7971 585.939 60.9512 586.099 61.1388C586.259 61.3263 586.381 61.5437 586.458 61.7784C586.534 62.0131 586.564 62.2605 586.544 62.5066C586.525 62.7527 586.458 62.9926 586.346 63.2127C586.234 63.4327 586.08 63.6286 585.893 63.7891C585.706 63.9495 585.488 64.0715 585.254 64.148C585.019 64.2245 584.772 64.254 584.526 64.2349Z" fill="#E6E6E6"/>
<path d="M535.516 67.869L465.919 62.4503C465.422 62.4113 464.962 62.1767 464.638 61.7979C464.314 61.4191 464.154 60.9273 464.193 60.4304C464.232 59.9336 464.466 59.4724 464.844 59.1483C465.222 58.8242 465.714 58.6637 466.21 58.702L535.808 64.1208C536.054 64.1398 536.293 64.2072 536.514 64.319C536.734 64.4308 536.929 64.5849 537.09 64.7725C537.25 64.9601 537.372 65.1775 537.449 65.4123C537.525 65.647 537.555 65.8946 537.536 66.1408C537.517 66.387 537.449 66.6271 537.337 66.8472C537.225 67.0673 537.071 67.2632 536.884 67.4237C536.696 67.5842 536.479 67.7061 536.244 67.7825C536.01 67.859 535.762 67.8884 535.516 67.8691V67.869Z" fill="#E6E6E6"/>
<path d="M550.848 76.5127L465.343 69.8555C465.097 69.8365 464.857 69.7691 464.637 69.6573C464.417 69.5455 464.221 69.3914 464.061 69.2038C463.9 69.0162 463.778 68.7988 463.702 68.564C463.625 68.3292 463.596 68.0817 463.615 67.8355C463.634 67.5893 463.702 67.3492 463.813 67.1291C463.925 66.909 464.079 66.7131 464.267 66.5526C464.454 66.3921 464.672 66.2702 464.906 66.1938C465.141 66.1173 465.388 66.0879 465.634 66.1072L551.139 72.7645C551.635 72.8035 552.096 73.0381 552.42 73.4169C552.743 73.7956 552.903 74.2875 552.865 74.7843C552.826 75.2812 552.592 75.7424 552.214 76.0665C551.836 76.3906 551.344 76.5511 550.848 76.5127Z" fill="#E6E6E6"/>
<path d="M583.469 207.145L439.394 195.927C437.158 195.751 435.083 194.693 433.624 192.987C432.165 191.281 431.443 189.066 431.614 186.827L437.86 116.77C438.037 114.531 439.093 112.455 440.798 110.995C442.502 109.535 444.716 108.812 446.953 108.983L591.028 120.201C593.264 120.377 595.34 121.435 596.798 123.141C598.257 124.847 598.98 127.062 598.808 129.301L592.562 199.358C592.386 201.597 591.329 203.674 589.625 205.133C587.92 206.593 585.706 207.316 583.469 207.145Z" fill="#E6E6E6"/>
<path d="M549.4 191.316C548.322 191.316 547.237 191.274 546.145 191.189L453.034 183.94C451.172 183.795 449.357 183.284 447.692 182.438C446.028 181.591 444.546 180.424 443.332 179.004C442.118 177.584 441.195 175.939 440.616 174.162C440.038 172.385 439.814 170.511 439.959 168.648L442.083 141.333C442.227 139.47 442.738 137.653 443.584 135.987C444.43 134.321 445.596 132.839 447.015 131.623C448.434 130.408 450.078 129.485 451.854 128.906C453.629 128.327 455.501 128.103 457.363 128.248L577.766 137.623C579.628 137.768 581.443 138.278 583.108 139.125C584.772 139.972 586.254 141.139 587.468 142.559C588.682 143.979 589.605 145.624 590.183 147.401C590.762 149.178 590.985 151.052 590.84 152.915C590.016 163.355 585.295 173.103 577.616 180.218C569.938 187.333 559.865 191.295 549.4 191.316Z" fill="white"/>
<path d="M574.885 159.337L456.853 150.147C456.607 150.128 456.368 150.061 456.148 149.949C455.928 149.837 455.732 149.683 455.572 149.495C455.412 149.308 455.29 149.09 455.213 148.856C455.137 148.621 455.107 148.373 455.127 148.127C455.146 147.881 455.213 147.641 455.325 147.421C455.437 147.201 455.591 147.005 455.778 146.845C455.965 146.684 456.183 146.562 456.417 146.486C456.652 146.409 456.899 146.38 457.145 146.399L575.177 155.589C575.423 155.608 575.662 155.675 575.882 155.787C576.102 155.899 576.298 156.053 576.458 156.241C576.618 156.428 576.74 156.646 576.817 156.88C576.893 157.115 576.923 157.363 576.903 157.609C576.884 157.855 576.817 158.095 576.705 158.315C576.593 158.535 576.439 158.731 576.252 158.891C576.065 159.052 575.847 159.174 575.613 159.25C575.378 159.326 575.131 159.356 574.885 159.337Z" fill="#E6E6E6"/>
<path d="M525.875 162.971L456.278 157.552C456.032 157.533 455.792 157.466 455.572 157.354C455.352 157.242 455.156 157.088 454.996 156.901C454.835 156.713 454.713 156.496 454.637 156.261C454.56 156.026 454.531 155.779 454.55 155.532C454.569 155.286 454.636 155.046 454.748 154.826C454.86 154.606 455.014 154.41 455.202 154.249C455.389 154.089 455.606 153.967 455.841 153.891C456.076 153.814 456.323 153.785 456.569 153.804L526.167 159.223C526.663 159.262 527.124 159.496 527.447 159.875C527.771 160.254 527.931 160.746 527.893 161.243C527.854 161.74 527.62 162.201 527.241 162.525C526.863 162.849 526.372 163.009 525.875 162.971Z" fill="#E6E6E6"/>
<path d="M541.207 171.615L455.702 164.958C455.206 164.919 454.745 164.684 454.421 164.305C454.097 163.927 453.937 163.435 453.975 162.938C454.014 162.441 454.248 161.979 454.627 161.655C455.005 161.331 455.497 161.171 455.994 161.209L541.498 167.867C541.995 167.905 542.456 168.14 542.78 168.519C543.104 168.897 543.264 169.389 543.225 169.886C543.187 170.383 542.952 170.845 542.574 171.169C542.195 171.493 541.704 171.653 541.207 171.615Z" fill="#E6E6E6"/>
<path d="M216.983 170.542C215.155 166.394 214.16 161.926 214.056 157.394C213.953 152.861 214.742 148.352 216.38 144.125C218.017 139.898 220.47 136.035 223.599 132.757C226.729 129.479 230.472 126.849 234.617 125.019C238.761 123.189 243.225 122.193 247.754 122.089C252.283 121.986 256.788 122.776 261.012 124.415C265.235 126.053 269.095 128.509 272.371 131.64C275.647 134.772 278.274 138.519 280.103 142.666L278.977 143.164C277.213 139.164 274.68 135.551 271.521 132.531C268.362 129.511 264.64 127.143 260.567 125.563C256.494 123.983 252.15 123.221 247.782 123.321C243.415 123.421 239.11 124.38 235.114 126.145C231.117 127.91 227.507 130.446 224.489 133.607C221.472 136.769 219.106 140.494 217.527 144.57C215.948 148.647 215.187 152.994 215.287 157.365C215.386 161.736 216.346 166.044 218.109 170.044L216.983 170.542Z" fill="#E6E6E6"/>
<path d="M574.546 363.073C588.631 356.393 599.122 342.954 597.485 328.185C584.849 338.426 567.646 344.144 549.886 344.007C542.969 343.954 535.222 343.25 530.195 347.134C527.068 349.551 525.657 353.389 525.478 357.214C525.3 361.039 526.227 364.911 527.148 368.732L526.868 369.637C543.405 370.691 560.461 369.753 574.546 363.073Z" fill="#D8C0D8"/>
<path d="M597.138 328.149C591.691 338.787 582.246 347.653 570.509 352.843C567.937 354.044 565.199 354.849 562.386 355.231C559.523 355.531 556.628 355.152 553.938 354.126C551.387 353.21 548.872 352.017 546.167 351.654C544.842 351.469 543.494 351.553 542.203 351.902C540.911 352.25 539.704 352.856 538.651 353.682C536.152 355.628 534.66 358.32 533.309 361.006C531.809 363.988 530.306 367.111 527.368 369.143C527.012 369.389 527.508 369.901 527.863 369.656C532.974 366.12 533.712 359.726 537.773 355.443C538.728 354.362 539.916 353.511 541.246 352.955C542.577 352.398 544.016 352.15 545.456 352.229C548.217 352.433 550.811 353.661 553.387 354.608C556.006 355.643 558.816 356.105 561.628 355.961C564.463 355.711 567.239 355.005 569.849 353.869C575.524 351.505 580.778 348.234 585.404 344.183C590.516 339.759 594.735 334.398 597.836 328.389C598.024 328.021 597.325 327.784 597.138 328.149H597.138Z" fill="white"/>
<path d="M574.44 351.344C575.923 353.094 577.914 354.339 580.137 354.904C582.359 355.47 584.702 355.328 586.84 354.498C587.25 354.326 586.915 353.724 586.505 353.897C584.516 354.673 582.333 354.805 580.265 354.275C578.197 353.745 576.347 352.579 574.975 350.942C574.687 350.592 574.154 350.995 574.44 351.344V351.344Z" fill="white"/>
<path d="M555.177 354.738C555.449 352.66 556.159 350.664 557.258 348.88C558.358 347.096 559.822 345.566 561.555 344.389C561.91 344.142 561.414 343.629 561.06 343.877C559.259 345.104 557.739 346.7 556.599 348.559C555.46 350.417 554.727 352.497 554.448 354.659C554.398 355.072 555.127 355.148 555.177 354.738L555.177 354.738Z" fill="white"/>
<path d="M589.68 339.307C589.002 338.786 588.469 338.1 588.131 337.315C587.792 336.53 587.66 335.672 587.746 334.821C587.803 334.41 587.074 334.334 587.018 334.743C586.927 335.683 587.074 336.63 587.446 337.498C587.818 338.366 588.402 339.126 589.145 339.708C589.212 339.774 589.299 339.816 589.392 339.826C589.486 339.836 589.58 339.814 589.66 339.764C589.694 339.737 589.722 339.703 589.743 339.665C589.763 339.626 589.774 339.583 589.776 339.54C589.778 339.496 589.77 339.453 589.753 339.413C589.737 339.372 589.712 339.336 589.68 339.307V339.307Z" fill="white"/>
<path d="M551.015 296.959C550.971 297.214 550.928 297.469 550.879 297.726C550.276 301.147 549.356 304.504 548.129 307.753C548.039 308.005 547.943 308.26 547.844 308.509C544.742 316.376 540.023 323.503 533.995 329.43C531.539 331.852 528.89 334.069 526.075 336.06C522.15 338.84 517.62 341.555 515.136 345.3C514.873 345.686 514.637 346.091 514.43 346.51L525.621 369.169C525.674 369.212 525.722 369.256 525.776 369.298L526.178 370.218C526.333 370.124 526.492 370.023 526.647 369.929C526.738 369.875 526.826 369.816 526.917 369.761C526.976 369.724 527.036 369.686 527.092 369.655C527.112 369.642 527.132 369.63 527.146 369.619C527.202 369.588 527.251 369.554 527.302 369.525C528.191 368.964 529.077 368.397 529.96 367.823C529.966 367.821 529.966 367.821 529.969 367.814C536.681 363.421 542.994 358.458 548.18 352.731C548.336 352.559 548.498 352.385 548.649 352.202C550.954 349.629 553.019 346.849 554.817 343.898C555.786 342.293 556.661 340.634 557.438 338.928C559.433 334.52 560.615 329.788 560.927 324.96C561.559 315.289 558.692 305.288 551.566 297.546C551.383 297.348 551.203 297.155 551.015 296.959Z" fill="#D8C0D8"/>
<path d="M550.729 297.113C553.846 309.075 552.772 321.692 547.494 332.427C546.397 334.811 544.885 336.981 543.029 338.836C541.04 340.659 538.596 341.91 535.956 342.457C533.426 343.056 530.736 343.401 528.465 344.553C527.351 345.111 526.385 345.926 525.645 346.929C524.906 347.933 524.414 349.098 524.21 350.328C523.655 353.327 524.359 356.415 525.164 359.423C526.058 362.762 527.045 366.222 526.22 369.531C526.12 369.932 526.838 370.099 526.938 369.698C528.373 363.941 524.6 358.12 524.744 352.296C524.811 349.578 525.801 346.93 528.322 345.424C530.527 344.107 533.3 343.749 535.869 343.163C538.465 342.658 540.897 341.526 542.954 339.864C544.914 338.114 546.523 336.006 547.695 333.653C550.38 328.47 552.106 322.843 552.789 317.044C553.608 310.316 553.141 303.494 551.413 296.94C551.306 296.527 550.622 296.703 550.729 297.113H550.729Z" fill="white"/>
<path d="M549.424 329.034C554.027 330.477 558.911 328.751 560.841 325.019C561.031 324.652 560.374 324.322 560.184 324.69C558.375 328.186 553.856 329.754 549.553 328.405C549.1 328.263 548.974 328.893 549.424 329.034V329.034Z" fill="white"/>
<path d="M537.297 342.307C536.118 340.528 535.314 338.527 534.931 336.426C534.549 334.326 534.597 332.169 535.072 330.088C535.171 329.687 534.453 329.52 534.355 329.92C533.865 332.088 533.82 334.333 534.223 336.518C534.625 338.703 535.468 340.784 536.699 342.634C536.94 343.011 537.537 342.682 537.297 342.307Z" fill="white"/>
<path d="M552.691 310.602C551.787 310.5 550.917 310.199 550.143 309.722C549.368 309.245 548.708 308.602 548.21 307.841C547.974 307.462 547.377 307.79 547.612 308.167C548.166 309.006 548.895 309.715 549.75 310.244C550.605 310.773 551.565 311.11 552.562 311.231C552.761 311.255 552.945 311.185 552.986 311C552.997 310.909 552.972 310.817 552.918 310.743C552.863 310.668 552.782 310.618 552.691 310.602Z" fill="white"/>
<path d="M574.77 202.186L566.209 156.576L549.404 134.438L536.949 142.588C538.709 152.14 552.021 169.974 552.021 169.974L563.821 205.248C563.774 205.431 563.73 205.616 563.698 205.806C563.511 206.922 563.615 208.068 563.999 209.132C564.383 210.196 565.036 211.143 565.893 211.881C566.75 212.619 567.782 213.123 568.891 213.345C570 213.567 571.147 213.499 572.221 213.148C573.296 212.797 574.262 212.174 575.026 211.339C575.79 210.505 576.326 209.488 576.582 208.386C576.838 207.284 576.806 206.134 576.489 205.048C576.171 203.962 575.579 202.976 574.77 202.186V202.186Z" fill="#FFB8B8"/>
<path d="M537.284 147.407L551.384 135.953L551.411 135.892C554.048 129.912 548.193 119.656 542.816 112.107C541.041 109.619 538.389 107.898 535.395 107.292C532.401 106.687 529.288 107.241 526.687 108.844C524.777 110.04 523.238 111.746 522.246 113.771C521.253 115.795 520.847 118.058 521.071 120.302L522.257 131.727L537.284 147.407Z" fill="#3F3D56"/>
<path d="M487.45 374.388L478.069 374.388L473.606 338.171L487.452 338.172L487.45 374.388Z" fill="#FFB8B8"/>
<path d="M489.844 371.323L487.203 371.323L476.893 367.126L471.368 371.322H471.367C468.244 371.322 465.249 372.564 463.041 374.773C460.833 376.983 459.593 379.98 459.593 383.106V383.489L489.843 383.49L489.844 371.323Z" fill="#2F2E41"/>
<path d="M529.079 374.388L519.697 374.388L515.234 338.171L529.081 338.172L529.079 374.388Z" fill="#FFB8B8"/>
<path d="M531.472 371.323L528.831 371.323L518.522 367.126L512.996 371.322H512.995C509.873 371.322 506.878 372.564 504.67 374.773C502.462 376.983 501.221 379.98 501.221 383.106V383.489L531.471 383.49L531.472 371.323Z" fill="#2F2E41"/>
<path d="M543.384 218.393C543.384 218.393 544.48 231.55 541.741 244.158C539.002 256.766 539.002 292.275 539.002 292.275L532.977 361.47L514.902 359.825L509.972 244.158L492.444 283.079L494.087 288.561L491.899 289.931C491.899 289.931 493.54 300.621 492.444 300.621C491.349 300.621 488.61 302.266 488.61 302.266L490.801 358.729L472.178 358.181L465.605 278.694L472.725 233.194L473.273 224.423L475.738 224.525L476.993 220.86L479.298 214.556L543.384 218.393Z" fill="#2F2E41"/>
<path d="M544.331 221.157L544.429 221.019C549.642 213.714 541.801 196.16 540.618 193.615L545.6 191.997L544.478 182.455L543.946 178.2L547.754 174.39L547.764 174.295L549.955 155.109L553.141 142.365C554.341 137.548 554.239 132.497 552.844 127.732C551.45 122.968 548.814 118.66 545.206 115.252L537.843 108.303L528.894 95.0512H514.463L509.515 104.405C504.717 105.515 500.461 108.274 497.487 112.201C494.513 116.129 493.01 120.976 493.24 125.898L494.361 150.431L489.971 180.976L489.969 186.504L485.028 191.999L486.107 197.398L482.347 199.01L480.686 206.764C479.999 207.672 475.464 213.724 475.464 215.378C475.464 215.626 475.647 215.867 476.04 216.133C479.131 218.227 496.214 222.498 503.775 219.47C511.828 216.247 543.842 221.082 544.165 221.131L544.331 221.157Z" fill="#3F3D56"/>
<path d="M418.836 383.268C418.835 383.461 418.911 383.647 419.048 383.785C419.184 383.922 419.37 383.999 419.563 384H591.96C592.154 384 592.34 383.923 592.477 383.785C592.615 383.648 592.692 383.462 592.692 383.268C592.692 383.073 592.615 382.887 592.477 382.75C592.34 382.612 592.154 382.535 591.96 382.535H419.568C419.374 382.534 419.188 382.611 419.051 382.747C418.914 382.884 418.836 383.069 418.836 383.263V383.268Z" fill="#CCCCCC"/>
<path d="M519.814 90.7733C530.37 90.7733 538.927 82.2095 538.927 71.6456C538.927 61.0816 530.37 52.5178 519.814 52.5178C509.259 52.5178 500.702 61.0816 500.702 71.6456C500.702 82.2095 509.259 90.7733 519.814 90.7733Z" fill="#FFB8B8"/>
<path d="M517.983 91.083C520.943 91.0528 523.895 90.7695 526.807 90.2364C529.689 89.5718 536.049 84.6499 537.783 81.7422C539.071 79.5818 539.843 76.2403 540.265 73.8176C540.835 70.6113 540.725 67.3211 539.943 64.1601C539.161 60.999 537.725 58.0374 535.727 55.4673C534.956 54.3906 533.91 53.5422 532.697 53.012C532.59 52.9731 532.48 52.9392 532.368 52.9105C530.611 52.4959 529.017 51.5651 527.792 50.2376C527.555 49.9688 527.298 49.7175 527.024 49.4857C525.649 48.3844 524.034 47.6243 522.31 47.2675C519.525 46.5981 515.541 47.4369 510.468 49.763C507.92 50.9316 505.092 50.6056 502.912 50.191C502.79 50.1706 502.664 50.1826 502.548 50.2258C502.432 50.269 502.329 50.3419 502.25 50.4372C501.35 51.3277 500.146 51.8442 498.882 51.8829C498.108 51.937 497.322 53.0318 496.376 54.4574C496.161 54.781 495.91 55.1587 495.729 55.3891L495.692 54.9563L495.266 55.4512C494.597 56.229 494.135 57.1637 493.924 58.1683C493.713 59.1728 493.759 60.2145 494.058 61.1964C494.358 62.1783 494.9 63.0683 495.636 63.7838C496.372 64.4992 497.276 65.0167 498.265 65.288C499.05 65.4754 499.852 65.5822 500.658 65.6065C501.147 65.6379 501.653 65.6703 502.139 65.7417C503.699 66.0197 505.16 66.6977 506.38 67.7097C507.601 68.7217 508.538 70.033 509.1 71.5156C509.233 71.8582 509.443 72.1657 509.713 72.4144C509.983 72.663 510.307 72.8461 510.66 72.9496C511.012 73.0531 511.383 73.0741 511.745 73.0111C512.107 72.9481 512.45 72.8028 512.746 72.5863C513.24 72.1807 513.824 71.9007 514.449 71.77C515.074 71.6393 515.722 71.6618 516.336 71.8357C516.871 72.1153 517.293 72.5703 517.532 73.1243C517.821 73.741 518.287 74.2575 518.87 74.608C520.86 75.5705 521.111 80.0559 520.503 83.8161C519.916 87.4406 518.639 90.0846 517.398 90.2457C516.443 90.3697 516.335 90.4406 516.27 90.6119L516.212 90.7653L516.323 90.9045C516.857 91.0828 517.424 91.1437 517.983 91.083Z" fill="#2F2E41"/>
<path d="M307.939 189.676C328.928 189.676 345.943 172.648 345.943 151.642C345.943 130.636 328.928 113.608 307.939 113.608C286.951 113.608 269.936 130.636 269.936 151.642C269.936 172.648 286.951 189.676 307.939 189.676Z" fill="#EB5757"/>
<path d="M513.581 145.982L501.045 137.959C493.063 143.484 482.274 162.952 482.274 162.952L454.971 188.196C453.834 188.391 452.768 188.883 451.881 189.622C450.993 190.361 450.316 191.32 449.917 192.404C449.519 193.488 449.412 194.658 449.609 195.796C449.805 196.934 450.298 198 451.037 198.887C451.776 199.774 452.736 200.451 453.819 200.849C454.903 201.247 456.072 201.352 457.209 201.154C458.346 200.956 459.41 200.461 460.296 199.72C461.181 198.98 461.856 198.018 462.252 196.934L500.304 170.404L513.581 145.982Z" fill="#FFB8B8"/>
<path d="M512.386 149.238L520.735 129.183L517.715 118.101C517.114 115.927 515.918 113.965 514.262 112.436C512.605 110.907 510.555 109.873 508.341 109.449C505.337 108.895 502.235 109.503 499.662 111.151C497.089 112.798 495.237 115.362 494.48 118.324C492.194 127.309 490.438 138.989 495.056 143.611L495.103 143.658L512.386 149.238Z" fill="#3F3D56"/>
<path d="M26.1753 372.396C9.83217 364.001 -2.02511 347.777 0.453899 330.44C14.9573 342.975 35.01 350.355 55.9366 350.857C64.0873 351.053 73.2396 350.513 79.0161 355.277C82.6105 358.241 84.1293 362.815 84.1966 367.328C84.2638 371.841 83.0278 376.367 81.7998 380.834L82.0961 381.911C62.5753 382.534 42.5183 380.791 26.1753 372.396Z" fill="#D8C0D8"/>
<path d="M0.86376 330.41C6.88408 343.145 17.6793 353.943 31.3128 360.495C34.2976 362.006 37.4934 363.057 40.7919 363.613C44.1544 364.073 47.5779 363.735 50.7859 362.626C53.8252 361.642 56.8319 360.331 60.0326 360.005C61.5999 359.836 63.185 359.986 64.6932 360.444C66.2014 360.903 67.6017 361.662 68.8103 362.674C71.6826 365.06 73.3387 368.287 74.8304 371.502C76.4865 375.071 78.1409 378.806 81.5259 381.31C81.936 381.613 81.3329 382.198 80.9234 381.895C75.0341 377.539 74.4038 369.979 69.7791 364.782C67.6211 362.357 64.5765 360.552 60.8483 360.708C57.5882 360.845 54.4865 362.195 51.4169 363.215C48.2931 364.336 44.9655 364.775 41.6581 364.501C38.3276 364.1 35.0836 363.164 32.0513 361.729C25.454 358.732 19.3873 354.682 14.0884 349.737C8.23222 344.334 3.46157 337.861 0.0330922 330.666C-0.174868 330.226 0.657166 329.973 0.863774 330.41H0.86376Z" fill="white"/>
<path d="M26.7369 358.582C23.1542 362.672 16.8485 364.055 12.0119 361.835C11.5355 361.616 11.9522 360.921 12.4293 361.14C14.7438 362.128 17.3094 362.365 19.7655 361.818C22.2216 361.271 24.4446 359.967 26.1218 358.09C26.4742 357.687 27.0873 358.182 26.7369 358.582Z" fill="white"/>
<path d="M49.3037 363.301C49.0598 360.843 48.2986 358.465 47.0701 356.322C45.8416 354.18 44.1737 352.322 42.1762 350.871C41.7674 350.567 42.3703 349.982 42.7786 350.286C44.854 351.8 46.5853 353.737 47.8584 355.969C49.1316 358.201 49.9176 360.677 50.1647 363.236C50.2087 363.723 49.3475 363.786 49.3037 363.301V363.301Z" fill="white"/>
<path d="M9.23425 343.833C10.0516 343.245 10.7052 342.457 11.1331 341.545C11.5609 340.633 11.7489 339.626 11.6791 338.621C11.6281 338.135 12.4894 338.073 12.54 338.556C12.6122 339.666 12.4034 340.777 11.9332 341.786C11.4629 342.794 10.7462 343.668 9.8494 344.326C9.76801 344.401 9.66357 344.447 9.55303 344.455C9.4425 344.463 9.33239 344.434 9.2406 344.372C9.20095 344.339 9.1689 344.299 9.14671 344.252C9.12451 344.206 9.11269 344.155 9.11208 344.104C9.11148 344.053 9.12211 344.002 9.14321 343.955C9.16431 343.908 9.19539 343.866 9.23426 343.833H9.23425Z" fill="white"/>
<path d="M56.3624 295.391C56.404 295.693 56.4457 295.995 56.4937 296.3C57.076 300.352 58.0355 304.341 59.3596 308.214C59.4565 308.515 59.5598 308.819 59.6664 309.116C63.028 318.499 68.3202 327.072 75.2006 334.279C78.0033 337.224 81.0411 339.935 84.2837 342.386C88.8036 345.807 94.0385 349.175 96.8247 353.68C97.1206 354.144 97.3833 354.629 97.611 355.131L83.5831 381.406C83.5186 381.454 83.4604 381.504 83.3958 381.552L82.8879 382.621C82.7081 382.504 82.5248 382.38 82.3451 382.263C82.2405 382.196 82.139 382.123 82.0344 382.055C81.9656 382.009 81.897 381.962 81.8316 381.923C81.8087 381.908 81.7859 381.892 81.7694 381.879C81.7041 381.841 81.6485 381.799 81.5897 381.762C80.5627 381.069 79.54 380.367 78.5215 379.658C78.515 379.655 78.515 379.655 78.5116 379.647C70.7684 374.222 63.5169 368.139 57.6207 361.198C57.4434 360.99 57.2594 360.779 57.0885 360.558C54.4687 357.44 52.1401 354.088 50.132 350.545C49.0505 348.618 48.0814 346.63 47.2293 344.591C45.0439 339.325 43.8281 333.706 43.6406 328.007C43.257 316.59 47.0072 304.916 55.6919 296.062C55.9142 295.835 56.1335 295.615 56.3624 295.391Z" fill="#D8C0D8"/>
<path d="M56.6938 295.583C52.5755 309.559 53.3699 324.462 59.1864 337.305C60.3904 340.155 62.0907 342.767 64.2079 345.021C66.4819 347.244 69.3143 348.809 72.405 349.552C75.3625 350.352 78.518 350.859 81.1503 352.301C82.4421 353 83.5502 353.996 84.384 355.206C85.2178 356.416 85.7535 357.806 85.9474 359.263C86.4901 362.817 85.5447 366.429 84.4841 369.942C83.3065 373.842 82.0151 377.881 82.8633 381.809C82.9661 382.285 82.1145 382.455 82.0119 381.98C80.5362 375.144 85.1976 368.428 85.2452 361.562C85.2674 358.358 84.2007 355.201 81.2865 353.333C78.7382 351.699 75.4849 351.174 72.4805 350.387C69.4419 349.695 66.6185 348.27 64.2568 346.236C62.0133 344.101 60.1968 341.558 58.9045 338.742C55.9346 332.536 54.1115 325.842 53.5233 318.986C52.8089 311.029 53.6134 303.01 55.8939 295.354C56.0361 294.871 56.8352 295.104 56.6938 295.583L56.6938 295.583Z" fill="white"/>
<path d="M57.0396 333.236C51.5628 334.764 45.8742 332.548 43.7396 328.08C43.5293 327.639 44.3159 327.276 44.5264 327.717C46.5262 331.903 51.7915 333.919 56.9112 332.49C57.45 332.34 57.5753 333.087 57.0396 333.236Z" fill="white"/>
<path d="M70.8302 349.326C72.285 347.273 73.3079 344.946 73.8367 342.486C74.3656 340.026 74.3894 337.484 73.9068 335.014C73.8059 334.538 74.6574 334.368 74.7581 334.843C75.2548 337.415 75.2242 340.061 74.668 342.62C74.1119 345.18 73.0419 347.6 71.523 349.733C71.2249 350.167 70.5337 349.758 70.8301 349.326H70.8302Z" fill="white"/>
<path d="M53.8783 311.4C54.9469 311.314 55.9832 310.992 56.9135 310.459C57.8438 309.926 58.6451 309.193 59.2604 308.315C59.5524 307.877 60.2433 308.287 59.9533 308.722C59.2694 309.69 58.3834 310.498 57.3565 311.089C56.3297 311.68 55.1867 312.041 54.0067 312.146C53.7724 312.167 53.5572 312.078 53.5168 311.858C53.5072 311.75 53.5393 311.643 53.6065 311.557C53.6737 311.472 53.771 311.416 53.8783 311.4Z" fill="white"/>
<path d="M105.804 163.703L107.035 175.131L106.311 190.116L139.475 186.173L142.592 163.703L138.621 163.742L105.804 163.703Z" fill="#FFB6B6"/>
<path d="M88.6022 371.178H95.853L99.304 343.188H88.6022V371.178Z" fill="#FFB6B6"/>
<path d="M86.2358 366.207L97.8199 365.515V370.482L108.833 378.095C109.377 378.471 109.787 379.011 110.002 379.636C110.218 380.262 110.228 380.94 110.031 381.571C109.835 382.203 109.441 382.755 108.909 383.147C108.376 383.539 107.733 383.751 107.072 383.751H93.2803L90.9032 378.837L89.975 383.751H84.7751L86.2358 366.207Z" fill="#2F2E41"/>
<path d="M129.331 371.178H136.582L140.033 343.188H129.331V371.178Z" fill="#FFB6B6"/>
<path d="M126.965 366.207L138.549 365.515V370.482L149.562 378.095C150.106 378.471 150.516 379.011 150.731 379.636C150.947 380.262 150.957 380.94 150.76 381.571C150.564 382.203 150.17 382.755 149.638 383.147C149.105 383.539 148.462 383.751 147.801 383.751H134.009L131.632 378.837L130.704 383.751H125.504L126.965 366.207Z" fill="#2F2E41"/>
<path d="M85.4737 347.04H85.5526L86.947 301.529C86.0446 299.787 85.5866 297.849 85.6139 295.887C85.6411 293.925 86.1527 292 87.1031 290.283L87.3027 289.922L86.785 287.52C86.1202 284.435 86.4253 281.219 87.6585 278.314L88.9594 235.861C84.3118 205.716 106.461 186.057 106.461 186.057H139.641L146.764 210.55C151.473 256.467 150.619 301.211 143.146 344.561L143.35 344.664C144.083 344.918 144.398 345.935 144.053 346.936C143.707 347.937 142.833 348.543 142.099 348.29L124.577 347.68C123.843 347.427 123.528 346.41 123.874 345.408C124.219 344.407 125.093 343.801 125.827 344.054L127.018 344.658L124.478 300.741L124.76 292.72L124.179 283.619L121.493 242.686L111.326 293.022L100.941 347.547C101.228 347.806 101.429 348.147 101.518 348.523C101.607 348.899 101.58 349.294 101.441 349.654C101.301 350.015 101.056 350.325 100.736 350.543C100.417 350.761 100.04 350.877 99.6533 350.876H85.4737C85.2218 350.876 84.9723 350.827 84.7394 350.731C84.5065 350.634 84.2948 350.493 84.1165 350.315C83.9382 350.137 83.7968 349.925 83.7003 349.693C83.6038 349.46 83.5541 349.21 83.5541 348.958C83.5541 348.706 83.6038 348.456 83.7003 348.223C83.7968 347.99 83.9382 347.779 84.1165 347.601C84.2948 347.422 84.5065 347.281 84.7394 347.185C84.9723 347.089 85.2218 347.04 85.4737 347.04Z" fill="#2F2E41"/>
<path d="M111.595 105.226C121.424 105.226 129.392 97.252 129.392 87.4152C129.392 77.5784 121.424 69.6041 111.595 69.6041C101.766 69.6041 93.7985 77.5784 93.7985 87.4152C93.7985 97.252 101.766 105.226 111.595 105.226Z" fill="#FFB6B6"/>
<path d="M33.6108 169.702C36.112 163.89 39.5467 158.528 43.7787 153.827C40.1951 159.543 38.1471 166.088 37.8329 172.829C39.1304 173.64 40.4879 174.35 41.8936 174.954C46.1182 176.728 50.6225 177.74 55.199 177.946C57.6657 169.721 61.9232 162.146 67.6652 155.765C63.5271 162.37 61.4461 170.057 61.6871 177.849C66.7917 177.407 71.8211 176.329 76.6582 174.638C83.921 172.137 90.9707 168.403 95.9934 162.594C101.429 156.308 104.108 148.012 104.973 139.742C105.839 131.478 105.025 123.137 104.205 114.867C103.818 110.925 107.097 106.39 106.71 102.449H106.452C104.728 100.084 102.972 97.6609 102.126 94.8569C101.287 92.0592 101.507 88.7576 103.437 86.5544C104.518 85.4032 105.883 84.5566 107.394 84.0992C107.536 83.9183 107.691 83.7439 107.853 83.5694C110.776 80.462 114.216 77.8866 118.021 75.9583C115.277 78.0323 113.443 80.3776 112.591 82.8005C114.967 82.2772 117.343 81.756 119.718 81.237C120.512 80.3941 121.348 79.5919 122.223 78.8335C123.495 77.7286 123.915 77.6446 125.432 76.6044C124.207 77.6828 123.258 79.0385 122.662 80.5586C125.716 79.7897 128.77 78.6332 130.358 76.0035C132.992 71.6552 129.861 65.7886 125.49 63.1913C122.311 61.3938 118.647 60.642 115.018 61.042C111.388 61.442 107.976 62.9736 105.264 65.4203C98.9437 60.7619 89.9443 60.8394 82.9139 64.3219C78.2726 66.7239 74.2744 70.2046 71.2547 74.4723C73.0063 74.2473 74.7696 74.1243 76.5355 74.104C74.0497 74.4681 71.6826 75.4059 69.6213 76.8434C68.7095 78.2604 67.8733 79.7248 67.1165 81.2305C66.6194 82.219 66.1503 83.2205 65.7091 84.2349C63.0041 90.3987 61.2417 96.9631 59.4147 103.45C57.2843 111.009 54.9989 118.62 51.0092 125.385C44.892 135.671 35.2422 143.377 23.8625 147.062C22.9135 155.61 27.0839 163.971 33.6108 169.702Z" fill="#2F2E41"/>
<path d="M129.517 117.137L126.063 115.839L121.707 108.791L106.193 110.06L102.422 117.617L93.3372 124.56L97.3099 145.5L103.482 170.936L144.799 165.767L144.756 146.619C144.756 146.619 152.222 131.492 140.161 125.823L129.517 117.137Z" fill="#D8C0D8"/>
<path d="M193.203 183.555C192.401 183.877 191.538 184.019 190.675 183.972C189.812 183.924 188.97 183.688 188.208 183.279C187.447 182.871 186.784 182.3 186.266 181.607C185.748 180.914 185.389 180.116 185.213 179.27L139.145 151.371L147.565 141.648L190.201 172.129C191.642 171.927 193.107 172.261 194.318 173.068C195.53 173.875 196.403 175.099 196.773 176.507C197.143 177.916 196.984 179.411 196.326 180.71C195.668 182.009 194.557 183.021 193.203 183.555V183.555Z" fill="#FFB6B6"/>
<path d="M123.794 138.142C123.794 138.142 121.592 140.359 127.117 144.004C131.539 146.922 151.266 161.344 158.258 163.625C158.171 164.653 158.428 165.681 158.988 166.547C159.549 167.413 160.381 168.068 161.354 168.408L167.686 154.483C166.315 151.3 164.123 152.037 162.969 152.759L155.323 147.003L136.545 128.238L125.357 136.511L123.794 138.142Z" fill="#D8C0D8"/>
<path d="M105.377 65.9049C103.238 69.064 101.856 72.6745 101.339 76.4553C100.821 80.2362 101.183 84.0855 102.395 87.7037" fill="#FD6584"/>
<path d="M15.0878 383.268C15.0875 383.364 15.1062 383.459 15.1429 383.548C15.1796 383.637 15.2335 383.718 15.3015 383.786C15.3695 383.854 15.4503 383.908 15.5393 383.945C15.6282 383.982 15.7235 384 15.8197 384H188.212C188.406 384 188.592 383.923 188.729 383.785C188.867 383.648 188.944 383.462 188.944 383.268C188.944 383.073 188.867 382.887 188.729 382.75C188.592 382.612 188.406 382.535 188.212 382.535H15.8197C15.7235 382.535 15.6282 382.553 15.5393 382.59C15.4504 382.627 15.3695 382.681 15.3015 382.749C15.2335 382.817 15.1796 382.898 15.1429 382.987C15.1062 383.076 15.0875 383.171 15.0878 383.268Z" fill="#CCCCCC"/>
<path d="M80.7694 216.778C80.3398 216.93 79.9877 217.246 79.7905 217.656C79.5932 218.067 79.5668 218.54 79.717 218.97L103.735 288.25C103.886 288.68 104.202 289.032 104.612 289.23C105.023 289.427 105.495 289.454 105.925 289.303L245.676 240.231C246.106 240.079 246.458 239.763 246.655 239.352C246.853 238.942 246.879 238.469 246.729 238.039L222.711 168.759C222.559 168.329 222.244 167.976 221.833 167.779C221.423 167.582 220.951 167.555 220.521 167.706L80.7694 216.778Z" fill="#E6E6E6"/>
<path d="M116.142 279.304C113.392 279.304 110.709 278.45 108.463 276.862C106.217 275.274 104.517 273.028 103.598 270.434L90.4077 233.086C89.233 229.759 89.4266 226.102 90.9461 222.918C92.4657 219.735 95.1866 217.286 98.5103 216.11L169.142 191.126C182.364 186.465 196.893 187.244 209.542 193.291C222.19 199.338 231.926 210.16 236.612 223.382C237.787 226.709 237.593 230.366 236.074 233.549C234.554 236.733 231.833 239.182 228.509 240.358L228.407 240.068L228.509 240.358L120.559 278.543C119.141 279.046 117.647 279.304 116.142 279.304Z" fill="white"/>
<path d="M209.808 205.681L146.564 227.889C145.673 228.202 144.568 227.366 144.097 226.022C143.626 224.678 143.966 223.334 144.857 223.021L208.102 200.814C208.993 200.501 210.097 201.337 210.568 202.681C211.04 204.025 210.7 205.37 209.808 205.681Z" fill="#E6E6E6"/>
<path d="M214.7 219.636L151.455 241.843C150.564 242.156 149.46 241.32 148.989 239.976C148.517 238.632 148.858 237.288 149.749 236.975L212.993 214.768C213.884 214.455 214.989 215.291 215.46 216.635C215.931 217.979 215.591 219.323 214.7 219.636Z" fill="#E6E6E6"/>
<path d="M138.006 235.481C138.685 237.396 139.015 239.418 138.98 241.45C138.967 242.38 138.875 243.307 138.706 244.221C138.167 247.175 136.858 249.934 134.911 252.22C132.965 254.505 130.45 256.236 127.621 257.237C124.792 258.237 121.749 258.473 118.8 257.919C115.851 257.365 113.1 256.042 110.826 254.083C110.597 253.886 110.373 253.683 110.155 253.474C108.298 251.693 106.868 249.514 105.972 247.1C105.077 244.687 104.739 242.101 104.984 239.539C105.229 236.976 106.051 234.502 107.388 232.302C108.725 230.103 110.542 228.235 112.703 226.838C114.865 225.442 117.314 224.554 119.867 224.24C122.42 223.926 125.012 224.195 127.446 225.027C129.881 225.858 132.096 227.231 133.924 229.042C135.753 230.852 137.149 233.054 138.006 235.481Z" fill="#E4E4E4"/>
<path d="M122.653 243.767C124.451 243.767 125.909 242.308 125.909 240.508C125.909 238.708 124.451 237.248 122.653 237.248C120.854 237.248 119.396 238.708 119.396 240.508C119.396 242.308 120.854 243.767 122.653 243.767Z" fill="#FD6584"/>
<path d="M110.155 253.474C110.992 251.532 111.98 248.569 114.269 249.648C115.4 250.139 117.425 251.629 118.247 249.896L124.687 236.405C124.809 236.154 124.98 235.929 125.19 235.744C125.4 235.56 125.645 235.419 125.91 235.331C126.175 235.242 126.455 235.208 126.734 235.229C127.012 235.251 127.284 235.328 127.532 235.456L138.98 241.45C138.967 242.38 138.875 243.307 138.706 244.221L110.826 254.083L110.155 253.474Z" fill="#3F3D56"/>
<path d="M113.479 213.634C112.673 213.321 111.946 212.835 111.349 212.21C110.751 211.584 110.298 210.836 110.021 210.017C109.744 209.197 109.65 208.327 109.745 207.467C109.841 206.608 110.123 205.779 110.573 205.041L95.9988 153.163L108.786 151.826L119.091 203.24C120.281 204.079 121.122 205.325 121.455 206.743C121.788 208.16 121.59 209.651 120.898 210.932C120.206 212.213 119.069 213.196 117.701 213.694C116.334 214.192 114.832 214.171 113.479 213.634Z" fill="#FFB6B6"/>
<path d="M93.8427 124.685C93.8427 124.685 90.7216 124.797 92.2644 131.237C93.4995 136.392 98.0354 168.734 101.582 175.183C100.816 175.873 100.301 176.799 100.119 177.814C99.9367 178.83 100.097 179.877 100.575 180.791L114.707 174.958C115.88 171.697 114.972 168.736 113.637 168.474L111.986 159.042L109.553 127.4L96.0974 124.564L93.8427 124.685Z" fill="#D8C0D8"/>
<path d="M221.145 261.182L201.601 261.992C201.184 262.01 200.767 261.934 200.384 261.768C200 261.602 199.659 261.351 199.386 261.035C199.116 260.727 198.92 260.361 198.811 259.966C198.703 259.571 198.685 259.156 198.76 258.753C200.26 250.568 199.823 242.146 197.484 234.16C197.303 233.55 197.34 232.895 197.588 232.309C197.835 231.722 198.279 231.239 198.842 230.943C206.847 226.781 214.348 226.57 221.135 230.315C221.49 230.509 221.8 230.777 222.041 231.103C222.282 231.428 222.45 231.802 222.532 232.199C224.298 240.912 224.722 249.845 223.788 258.687C223.723 259.352 223.42 259.972 222.934 260.43C222.448 260.889 221.813 261.156 221.145 261.182Z" fill="#EB5757"/>
<path d="M220.318 248.38L205.375 248.999C205.19 249.007 205.006 248.979 204.833 248.915C204.66 248.852 204.501 248.755 204.366 248.63C204.23 248.505 204.12 248.355 204.042 248.187C203.965 248.02 203.921 247.839 203.913 247.655C203.906 247.47 203.935 247.286 203.998 247.113C204.062 246.94 204.158 246.781 204.283 246.645C204.408 246.509 204.559 246.4 204.726 246.322C204.893 246.245 205.074 246.201 205.258 246.194L220.202 245.574C220.386 245.566 220.57 245.595 220.743 245.659C220.916 245.722 221.075 245.819 221.21 245.944C221.346 246.069 221.455 246.219 221.533 246.386C221.61 246.554 221.654 246.735 221.662 246.919C221.67 247.103 221.641 247.287 221.577 247.46C221.514 247.633 221.417 247.792 221.292 247.928C221.168 248.064 221.017 248.173 220.85 248.251C220.683 248.328 220.502 248.372 220.318 248.38Z" fill="white"/>
<path d="M220.115 243.46L205.171 244.079C204.799 244.095 204.436 243.962 204.163 243.709C203.889 243.457 203.726 243.106 203.711 242.734C203.696 242.362 203.829 241.999 204.081 241.725C204.333 241.451 204.683 241.289 205.055 241.273L219.998 240.654C220.37 240.639 220.733 240.772 221.007 241.024C221.28 241.276 221.443 241.627 221.458 241.999C221.474 242.371 221.341 242.734 221.089 243.008C220.837 243.282 220.486 243.444 220.115 243.46Z" fill="white"/>
<path d="M578.585 108.174L559.191 105.628C558.776 105.574 558.379 105.428 558.03 105.199C557.68 104.97 557.386 104.664 557.171 104.306C556.958 103.956 556.827 103.562 556.788 103.154C556.749 102.746 556.802 102.335 556.945 101.951C559.821 94.143 560.829 85.7696 559.888 77.5016C559.815 76.869 559.963 76.2305 560.307 75.6948C560.651 75.1592 561.17 74.7595 561.776 74.5641C570.374 71.8326 577.801 72.9081 583.848 77.7596C584.165 78.0111 584.424 78.3288 584.606 78.6906C584.789 79.0524 584.89 79.4496 584.903 79.8545C585.155 88.7422 584.046 97.616 581.615 106.168C581.438 106.812 581.033 107.371 580.476 107.739C579.919 108.108 579.247 108.263 578.585 108.174Z" fill="#EB5757"/>
<path d="M579.957 95.4188L565.128 93.4722C564.945 93.4482 564.769 93.3885 564.61 93.2963C564.45 93.2042 564.31 93.0815 564.198 92.9353C564.086 92.7891 564.003 92.6222 563.955 92.4441C563.908 92.266 563.895 92.0802 563.919 91.8974C563.943 91.7146 564.003 91.5383 564.095 91.3785C564.187 91.2188 564.31 91.0788 564.456 90.9665C564.602 90.8541 564.769 90.7717 564.947 90.7239C565.125 90.6761 565.31 90.6638 565.493 90.6878L580.322 92.6344C580.691 92.6828 581.026 92.8759 581.253 93.1713C581.479 93.4666 581.579 93.8399 581.531 94.2092C581.483 94.5784 581.29 94.9133 580.994 95.1401C580.699 95.367 580.326 95.4672 579.957 95.4188Z" fill="white"/>
<path d="M580.597 90.5363L565.768 88.5897C565.585 88.566 565.408 88.5065 565.249 88.4145C565.089 88.3225 564.948 88.1998 564.836 88.0535C564.723 87.9072 564.641 87.7401 564.593 87.5618C564.545 87.3835 564.533 87.1975 564.557 87.0145C564.581 86.8314 564.64 86.6549 564.733 86.495C564.825 86.3351 564.948 86.195 565.094 86.0827C565.241 85.9704 565.408 85.8881 565.586 85.8405C565.764 85.7929 565.95 85.7809 566.133 85.8052L580.962 87.7518C581.145 87.7755 581.322 87.835 581.482 87.927C581.642 88.019 581.782 88.1417 581.894 88.288C582.007 88.4343 582.089 88.6014 582.137 88.7797C582.185 88.958 582.198 89.1439 582.174 89.327C582.15 89.51 582.09 89.6866 581.998 89.8464C581.905 90.0063 581.782 90.1465 581.636 90.2588C581.49 90.3711 581.323 90.4534 581.144 90.501C580.966 90.5486 580.78 90.5606 580.597 90.5363Z" fill="white"/>
<path d="M320.24 145.794H313.782V139.331C313.782 137.78 313.167 136.293 312.071 135.196C310.975 134.1 309.489 133.483 307.939 133.483C306.39 133.483 304.904 134.1 303.808 135.196C302.712 136.293 302.096 137.78 302.096 139.331V145.794H295.638C294.089 145.794 292.603 146.411 291.507 147.507C290.411 148.604 289.795 150.091 289.795 151.642C289.795 153.193 290.411 154.68 291.507 155.777C292.603 156.874 294.089 157.49 295.638 157.49H302.096V163.953C302.096 165.504 302.712 166.991 303.808 168.088C304.904 169.185 306.39 169.801 307.939 169.801C309.489 169.801 310.975 169.185 312.071 168.088C313.167 166.991 313.782 165.504 313.782 163.953V157.49H320.24C321.79 157.49 323.276 156.874 324.372 155.777C325.468 154.68 326.083 153.193 326.083 151.642C326.083 150.091 325.468 148.604 324.372 147.507C323.276 146.411 321.79 145.794 320.24 145.794Z" fill="white"/>
<path d="M529.378 26.1821C532.779 26.1821 535.536 23.4231 535.536 20.0196C535.536 16.6162 532.779 13.8571 529.378 13.8571C525.978 13.8571 523.221 16.6162 523.221 20.0196C523.221 23.4231 525.978 26.1821 529.378 26.1821Z" fill="#3F3D56"/>
<path d="M151.123 200.382C154.524 200.382 157.281 197.623 157.281 194.219C157.281 190.816 154.524 188.057 151.123 188.057C147.723 188.057 144.966 190.816 144.966 194.219C144.966 197.623 147.723 200.382 151.123 200.382Z" fill="#3F3D56"/>
</g>
<defs>
<clipPath id="clip0_1_141">
<rect width="608.475" height="384" fill="white"/>
</clipPath>
</defs>
</svg>
