<svg width="371" height="384" viewBox="0 0 371 384" fill="none" xmlns="http://www.w3.org/2000/svg">
<g clip-path="url(#clip0_3_416)">
<path d="M84.1355 134.264L70.0884 143.47L216.381 366.359L230.428 357.152L84.1355 134.264Z" fill="#E6E6E6"/>
<path d="M50.6932 50.3848L83.1936 99.9017C83.823 100.861 84.0454 102.03 83.8119 103.153C83.5784 104.276 82.9081 105.26 81.9485 105.889C80.9889 106.518 79.8186 106.74 78.695 106.506C77.5714 106.273 76.5866 105.603 75.9573 104.644L38.5941 47.7187C33.5226 47.2955 28.425 48.1321 23.7554 50.1539L64.4642 112.177C65.0931 113.136 65.3152 114.305 65.0816 115.428C64.848 116.55 64.1777 117.534 63.2183 118.163C62.2589 118.791 61.0888 119.014 59.9655 118.781C58.8421 118.548 57.8573 117.878 57.2278 116.92L16.519 54.8966C12.8026 58.3709 10.0037 62.7096 8.37153 67.5264L45.7347 124.452C46.3637 125.411 46.5857 126.58 46.3521 127.703C46.1185 128.825 45.4483 129.809 44.4889 130.438C43.5294 131.067 42.3594 131.289 41.236 131.056C40.1126 130.823 39.1279 130.153 38.4983 129.195L5.99789 79.6779C5.16313 93.4844 9.6679 109.849 19.5405 124.89C37.889 152.846 67.8192 165.641 86.3914 153.469C104.964 141.297 105.145 108.767 86.7963 80.8113C76.9237 65.7696 63.6983 55.1207 50.6932 50.3848Z" fill="#E6E6E6"/>
<path d="M148.461 125.797H131.662V392.349H148.461V125.797Z" fill="#E6E6E6"/>
<path d="M139.807 143.092C162.017 143.092 180.022 115.99 180.022 82.5586C180.022 49.1268 162.017 22.0249 139.807 22.0249C117.596 22.0249 99.591 49.1268 99.591 82.5586C99.591 115.99 117.596 143.092 139.807 143.092Z" fill="#E6E6E6"/>
<path d="M139.806 132.365C158.081 132.365 172.895 110.066 172.895 82.5586C172.895 55.0514 158.081 32.7524 139.806 32.7524C121.532 32.7524 106.718 55.0514 106.718 82.5586C106.718 110.066 121.532 132.365 139.806 132.365Z" fill="#CCCCCC"/>
<path d="M185.297 384C287.633 384 370.593 379.243 370.593 373.376C370.593 367.508 287.633 362.752 185.297 362.752C82.9602 362.752 0 367.508 0 373.376C0 379.243 82.9602 384 185.297 384Z" fill="#E6E6E6"/>
<path d="M294.88 373.22C225.438 360.712 154.318 360.712 84.8762 373.22C83.7731 373.42 82.6396 373.375 81.5557 373.089C80.4717 372.803 79.4638 372.283 78.603 371.566C77.7421 370.848 77.0494 369.95 76.5736 368.936C76.0978 367.922 75.8507 366.815 75.8495 365.695V270.621H303.907V365.695C303.906 366.815 303.659 367.922 303.183 368.936C302.707 369.95 302.014 370.848 301.154 371.566C300.293 372.283 299.285 372.803 298.201 373.089C297.117 373.375 295.983 373.42 294.88 373.22Z" fill="#D8C0D8"/>
<path d="M282.766 209.36C277.5 209.355 272.271 210.23 267.293 211.947C260.033 196.212 248.432 182.873 233.852 173.495C219.272 164.117 202.318 159.089 184.978 159.001C167.639 158.914 150.635 163.77 135.96 173.001C121.286 182.231 109.551 195.452 102.133 211.113C94.8275 209.066 87.137 208.802 79.7088 210.345C72.2806 211.888 65.3323 215.193 59.4492 219.98C53.566 224.767 48.9204 230.897 45.9037 237.854C42.8869 244.81 41.5873 252.389 42.1144 259.952C42.6415 267.515 44.9798 274.841 48.9324 281.312C52.885 287.784 58.3361 293.211 64.8264 297.137C71.3168 301.064 78.6564 303.374 86.227 303.873C93.7975 304.372 101.377 303.046 108.328 300.006C116.682 312.727 128.092 323.153 141.516 330.333C154.94 337.513 169.951 341.217 185.177 341.107C200.402 340.998 215.358 337.078 228.677 329.706C241.997 322.334 253.256 311.745 261.426 298.906C267.808 302.126 274.838 303.859 281.987 303.976C289.136 304.093 296.219 302.591 302.704 299.581C309.189 296.572 314.907 292.134 319.43 286.601C323.954 281.067 327.164 274.582 328.82 267.632C330.477 260.681 330.536 253.446 328.995 246.469C327.453 239.493 324.35 232.955 319.918 227.348C315.487 221.741 309.842 217.21 303.408 214.095C296.973 210.979 289.916 209.36 282.766 209.36Z" fill="#D8C0D8"/>
<path d="M94.1755 241.117H93.1574C93.1227 227.572 96.1226 214.192 101.937 201.956L102.857 202.392C97.1074 214.491 94.141 227.723 94.1755 241.117Z" fill="#3F3D56"/>
<path d="M276.418 241.117H275.4C275.431 228.032 272.601 215.098 267.105 203.22L268.03 202.794C273.587 214.805 276.45 227.885 276.418 241.117Z" fill="#3F3D56"/>
<path d="M75.9723 314.862L75.7267 313.875C76.014 313.803 104.948 306.702 147.351 303.179C186.488 299.927 245.439 299.143 304.031 313.875L303.783 314.862C245.335 300.166 186.512 300.947 147.457 304.191C105.13 307.707 76.2589 314.791 75.9723 314.862Z" fill="#3F3D56"/>
<path d="M75.9723 328.597L75.7267 327.609C76.014 327.538 104.948 320.437 147.351 316.913C186.488 313.661 245.439 312.877 304.031 327.61L303.783 328.596C245.335 313.9 186.512 314.682 147.457 317.926C105.13 321.441 76.2589 328.526 75.9723 328.597Z" fill="#3F3D56"/>
<path d="M75.9723 342.331L75.7267 341.344C76.014 341.273 104.948 334.171 147.351 330.648C186.488 327.396 245.439 326.612 304.031 341.344L303.783 342.331C245.335 327.635 186.512 328.417 147.457 331.66C105.13 335.176 76.2589 342.26 75.9723 342.331Z" fill="#3F3D56"/>
<path d="M263.318 267.648L250.984 263.458L262.825 203.062L254.684 202.323C246.746 208.409 236.175 210.795 222.614 208.978L244.323 241.765L233.254 249.573L197.941 207.247C196.35 205.339 195.478 202.934 195.478 200.45C195.478 198.148 196.227 195.908 197.613 194.068C198.999 192.228 200.946 190.888 203.16 190.251L240.869 179.397L285.027 184.327C291.703 194.498 291.965 201.571 281.802 203.612L263.318 267.648Z" fill="#2F2E41"/>
<path d="M250.694 291.144C249.419 291.063 248.181 290.683 247.08 290.034C245.98 289.386 245.048 288.487 244.36 287.411C243.673 286.335 243.248 285.112 243.123 283.842C242.997 282.572 243.172 281.289 243.635 280.099L249.767 264.343C252.882 258.446 257.157 259.185 262.205 264.343L264.672 271.574C264.875 272.169 264.956 272.799 264.909 273.427C264.862 274.054 264.689 274.665 264.4 275.224L258.423 286.771C257.698 288.171 256.582 289.33 255.209 290.106C253.837 290.883 252.268 291.243 250.694 291.144Z" fill="#2F2E41"/>
<path d="M234.753 270.51C233.478 270.429 232.24 270.049 231.139 269.401C230.039 268.752 229.107 267.853 228.419 266.778C227.732 265.702 227.308 264.479 227.182 263.208C227.056 261.938 227.231 260.656 227.694 259.466L233.827 243.709C236.941 237.813 241.216 238.551 246.264 243.709L248.731 250.94C248.934 251.535 249.015 252.166 248.968 252.793C248.921 253.42 248.748 254.032 248.459 254.59L242.482 266.138C241.757 267.537 240.641 268.696 239.268 269.473C237.896 270.249 236.327 270.609 234.753 270.51Z" fill="#2F2E41"/>
<path d="M242.596 121.713C250.226 121.713 256.411 115.532 256.411 107.908C256.411 100.284 250.226 94.1033 242.596 94.1033C234.966 94.1033 228.781 100.284 228.781 107.908C228.781 115.532 234.966 121.713 242.596 121.713Z" fill="#FFB9B9"/>
<path d="M264.059 127.383L245.063 137.243L241.116 119.494L254.19 111.359L264.059 127.383Z" fill="#FFB9B9"/>
<path d="M287.001 186.792C268.047 181.071 250.849 178.107 238.402 182.601C242.692 170.541 234.774 152.125 226.068 133.299C229.824 128.392 235.814 126.491 242.596 125.657C250.017 131.041 255.191 127.585 259.125 119.248C267.704 118.903 275.972 121.939 284.041 127.136C277.733 147.324 278.869 167.203 287.001 186.792Z" fill="#3F3D56"/>
<path d="M238.156 185.56C235.163 187.323 232.4 190.292 229.768 193.941C225.32 191.22 221.405 188.122 218.322 184.437C216.163 181.825 214.691 178.715 214.039 175.39C213.388 172.066 213.577 168.631 214.59 165.398L223.02 138.019C223.72 135.745 225.081 133.73 226.929 132.23L228.041 131.327L239.142 152.28L228.041 172.987C229.449 176.759 233.597 181.116 238.156 185.56Z" fill="#3F3D56"/>
<path d="M241.977 206.434C240.97 206.892 239.871 207.111 238.765 207.071C237.66 207.032 236.579 206.736 235.608 206.207C234.636 205.678 233.802 204.931 233.17 204.024C232.537 203.117 232.125 202.075 231.965 200.981L230.13 188.43L236.544 184.979L244.685 195.627C245.335 196.478 245.785 197.464 246.001 198.512C246.218 199.56 246.195 200.644 245.935 201.682C245.675 202.721 245.184 203.687 244.499 204.51C243.813 205.332 242.951 205.99 241.977 206.434Z" fill="#FFB9B9"/>
<path d="M256.534 107.304L254.176 107.374L247.633 98.1121C239.249 98.9782 232.379 102.618 226.565 108.193L225.976 104.267C225.414 100.522 226.309 96.7041 228.478 93.5988C230.646 90.4935 233.923 88.3367 237.635 87.572H237.635C239.584 87.1704 241.594 87.1654 243.546 87.5574C245.497 87.9494 247.35 88.7303 248.992 89.8535C250.635 90.9768 252.034 92.4193 253.107 94.0949C254.179 95.7705 254.902 97.6449 255.234 99.6062L256.534 107.304Z" fill="#2F2E41"/>
<path d="M230.006 193.946C229.547 192.94 229.329 191.842 229.369 190.737C229.408 189.633 229.704 188.552 230.233 187.582C230.763 186.611 231.511 185.777 232.418 185.145C233.326 184.514 234.368 184.102 235.463 183.942L248.023 182.108L251.477 188.518L240.821 196.652C239.97 197.302 238.983 197.752 237.934 197.968C236.885 198.184 235.8 198.161 234.761 197.901C233.722 197.641 232.755 197.151 231.932 196.466C231.109 195.781 230.451 194.92 230.006 193.946Z" fill="#FFB9B9"/>
<path d="M289.394 182.529C277.444 183.456 264.396 187.18 250.737 192.462C250.567 188.41 249.097 184.521 246.543 181.369C258.949 178.104 270.206 174.272 277.133 168.304L272.939 136.75L282.067 126.396L283.641 127.217C284.949 127.896 286.099 128.842 287.017 129.994C287.935 131.146 288.601 132.478 288.971 133.903C292.825 148.883 294.536 163.236 293.36 176.744C293.512 178.024 293.193 179.316 292.464 180.38C291.735 181.444 290.644 182.208 289.394 182.529Z" fill="#3F3D56"/>
<path d="M48.8114 370.381C37.6975 377.327 26.5835 377.324 15.4696 370.372C15.1177 370.155 14.832 369.847 14.6434 369.479C14.4548 369.112 14.3706 368.7 14.3999 368.288L17.8678 323.238H45.9171L49.879 368.272C49.9132 368.688 49.8316 369.105 49.6431 369.477C49.4547 369.849 49.1668 370.162 48.8114 370.381Z" fill="#3F3D56"/>
<path d="M31.7631 328.844C39.5802 328.844 45.9172 326.562 45.9172 323.748C45.9172 320.933 39.5802 318.652 31.7631 318.652C23.9461 318.652 17.6091 320.933 17.6091 323.748C17.6091 326.562 23.9461 328.844 31.7631 328.844Z" fill="#3F3D56"/>
<path d="M42.8572 322.028C35.4818 327.212 28.342 327.212 21.4377 322.028V313.874H42.8572V322.028Z" fill="#EB5757"/>
<path d="M32.1475 317.951C38.0623 317.951 42.8572 316.125 42.8572 313.874C42.8572 311.622 38.0623 309.797 32.1475 309.797C26.2327 309.797 21.4377 311.622 21.4377 313.874C21.4377 316.125 26.2327 317.951 32.1475 317.951Z" fill="#EB5757"/>
<path d="M32.6575 313.874C33.2208 313.874 33.6775 313.646 33.6775 313.364C33.6775 313.083 33.2208 312.854 32.6575 312.854C32.0942 312.854 31.6375 313.083 31.6375 313.364C31.6375 313.646 32.0942 313.874 32.6575 313.874Z" fill="#E6E6E6"/>
<path d="M37.4737 313.874C38.037 313.874 38.4937 313.646 38.4937 313.364C38.4937 313.083 38.037 312.854 37.4737 312.854C36.9104 312.854 36.4537 313.083 36.4537 313.364C36.4537 313.646 36.9104 313.874 37.4737 313.874Z" fill="#E6E6E6"/>
<path d="M35.0656 315.077C35.6289 315.077 36.0855 314.849 36.0855 314.567C36.0855 314.286 35.6289 314.058 35.0656 314.058C34.5023 314.058 34.0456 314.286 34.0456 314.567C34.0456 314.849 34.5023 315.077 35.0656 315.077Z" fill="#E6E6E6"/>
<path d="M25.4331 315.077C25.9964 315.077 26.4531 314.849 26.4531 314.567C26.4531 314.286 25.9964 314.058 25.4331 314.058C24.8698 314.058 24.4131 314.286 24.4131 314.567C24.4131 314.849 24.8698 315.077 25.4331 315.077Z" fill="#E6E6E6"/>
<path d="M27.8412 313.874C28.4045 313.874 28.8612 313.646 28.8612 313.364C28.8612 313.083 28.4045 312.854 27.8412 312.854C27.2779 312.854 26.8212 313.083 26.8212 313.364C26.8212 313.646 27.2779 313.874 27.8412 313.874Z" fill="#E6E6E6"/>
<path d="M30.2493 315.679C30.8127 315.679 31.2693 315.45 31.2693 315.169C31.2693 314.887 30.8127 314.659 30.2493 314.659C29.686 314.659 29.2294 314.887 29.2294 315.169C29.2294 315.45 29.686 315.679 30.2493 315.679Z" fill="#E6E6E6"/>
<path d="M356.791 370.381C345.677 377.327 334.563 377.324 323.449 370.372C323.097 370.155 322.812 369.847 322.623 369.479C322.434 369.112 322.35 368.7 322.379 368.288L325.847 323.238H353.897L357.859 368.272C357.893 368.688 357.811 369.105 357.623 369.477C357.434 369.849 357.146 370.162 356.791 370.381Z" fill="#3F3D56"/>
<path d="M339.743 328.844C347.56 328.844 353.897 326.562 353.897 323.748C353.897 320.933 347.56 318.652 339.743 318.652C331.926 318.652 325.589 320.933 325.589 323.748C325.589 326.562 331.926 328.844 339.743 328.844Z" fill="#3F3D56"/>
<path d="M350.837 322.028C343.461 327.212 336.321 327.212 329.417 322.028V313.874H350.837V322.028Z" fill="#EB5757"/>
<path d="M340.127 317.951C346.042 317.951 350.837 316.125 350.837 313.874C350.837 311.622 346.042 309.797 340.127 309.797C334.212 309.797 329.417 311.622 329.417 313.874C329.417 316.125 334.212 317.951 340.127 317.951Z" fill="#EB5757"/>
<path d="M340.637 313.874C341.2 313.874 341.657 313.646 341.657 313.364C341.657 313.083 341.2 312.854 340.637 312.854C340.074 312.854 339.617 313.083 339.617 313.364C339.617 313.646 340.074 313.874 340.637 313.874Z" fill="#E6E6E6"/>
<path d="M345.453 313.874C346.017 313.874 346.473 313.646 346.473 313.364C346.473 313.083 346.017 312.854 345.453 312.854C344.89 312.854 344.433 313.083 344.433 313.364C344.433 313.646 344.89 313.874 345.453 313.874Z" fill="#E6E6E6"/>
<path d="M343.045 315.077C343.608 315.077 344.065 314.849 344.065 314.567C344.065 314.286 343.608 314.058 343.045 314.058C342.482 314.058 342.025 314.286 342.025 314.567C342.025 314.849 342.482 315.077 343.045 315.077Z" fill="#E6E6E6"/>
<path d="M333.413 315.077C333.976 315.077 334.432 314.849 334.432 314.567C334.432 314.286 333.976 314.058 333.413 314.058C332.849 314.058 332.393 314.286 332.393 314.567C332.393 314.849 332.849 315.077 333.413 315.077Z" fill="#E6E6E6"/>
<path d="M335.821 313.874C336.384 313.874 336.841 313.646 336.841 313.364C336.841 313.083 336.384 312.854 335.821 312.854C335.257 312.854 334.801 313.083 334.801 313.364C334.801 313.646 335.257 313.874 335.821 313.874Z" fill="#E6E6E6"/>
<path d="M338.229 315.679C338.792 315.679 339.249 315.45 339.249 315.169C339.249 314.887 338.792 314.659 338.229 314.659C337.666 314.659 337.209 314.887 337.209 315.169C337.209 315.45 337.666 315.679 338.229 315.679Z" fill="#E6E6E6"/>
</g>
<defs>
<clipPath id="clip0_3_416">
<rect width="370.594" height="384" fill="white"/>
</clipPath>
</defs>
</svg>
