<svg width="358" height="285" viewBox="0 0 358 285" fill="none" xmlns="http://www.w3.org/2000/svg">
<g clip-path="url(#clip0_3_365)">
<path d="M83.6691 97.4135H81.1292V125.357H83.6691V97.4135Z" fill="#F2F2F2"/>
<path d="M137.382 284.51H37.3064L37.4182 272.882L37.4283 271.871L38.3224 180.866H136.874L137.001 207.156L137.006 208.167L137.382 284.51Z" fill="#E6E6E6"/>
<path d="M258.251 86.6075L274.444 59.1526C275.126 57.9874 275.324 56.6004 274.993 55.2911C274.662 53.9818 273.83 52.8551 272.675 52.1541C272.078 51.7914 271.414 51.5542 270.722 51.4568C270.03 51.3595 269.326 51.404 268.652 51.5878C267.978 51.7715 267.349 52.0906 266.802 52.5256C266.255 52.9606 265.803 53.5023 265.473 54.1179L249.526 83.1526L239.093 100.387C238.181 100.254 237.25 100.405 236.426 100.819C235.603 101.234 234.927 101.892 234.491 102.704C234.055 103.516 233.879 104.443 233.988 105.359C234.096 106.274 234.484 107.134 235.098 107.822C235.713 108.509 236.524 108.99 237.421 109.201C238.319 109.411 239.259 109.34 240.115 108.997C240.971 108.654 241.7 108.056 242.204 107.285C242.708 106.513 242.962 105.604 242.932 104.683L258.251 86.6075Z" fill="#A0616A"/>
<path d="M273.667 66.2352C273.99 66.1589 274.279 65.9786 274.49 65.7219C274.701 65.4653 274.822 65.1464 274.834 64.8144C274.857 64.4051 275.007 64.0131 275.263 63.6931C275.314 63.6319 275.368 63.5739 275.426 63.5197C275.782 63.2017 276.057 62.8024 276.226 62.3555C276.395 61.9087 276.454 61.4276 276.398 60.9531C276.189 59.3942 276.752 57.5868 277.443 56.0941C278.198 54.4607 279.053 52.8437 279.396 51.077C279.89 48.5284 279.139 45.5083 275.999 44.7524C274.658 44.4516 273.254 44.6222 272.025 45.2355C269.437 46.4835 267.856 48.9664 266.366 51.3562C266.366 51.3562 262.807 55.0601 260.325 56.8602C260.973 57.1114 260.894 58.1445 260.356 58.585C259.819 59.0255 259.072 59.0677 258.386 59.1777C257.521 59.3164 256.538 59.7122 256.591 60.7887C256.61 61.0459 256.683 61.2962 256.804 61.5238C256.926 61.7515 257.093 61.9516 257.295 62.1117C261.052 65.2172 265.41 67.5121 270.096 68.8522C271.137 69.1492 272.304 69.3865 273.261 68.8807C274.219 68.3749 274.591 66.7989 273.667 66.2352Z" fill="#D8C0D8"/>
<path d="M298.362 113.883L265.342 113.375L264.326 105.754L267.374 88.4799H293.282L298.362 113.883Z" fill="#A0616A"/>
<path d="M254.034 273.834H248.427L245.759 252.204H254.034V273.834Z" fill="#A0616A"/>
<path d="M256.994 283.55H252.973L252.255 279.753L250.417 283.55H239.752C239.241 283.55 238.743 283.387 238.331 283.084C237.919 282.781 237.615 282.354 237.463 281.866C237.311 281.378 237.319 280.854 237.485 280.371C237.652 279.887 237.969 279.47 238.389 279.18L246.906 273.297V269.458L255.864 269.993L256.994 283.55Z" fill="#2F2E41"/>
<path d="M329.868 255.63L325.268 258.837L310.709 242.621L317.498 237.887L329.868 255.63Z" fill="#A0616A"/>
<path d="M337.852 261.907L334.554 264.207L331.793 261.503L332.457 265.669L323.709 271.77C323.29 272.062 322.788 272.213 322.277 272.2C321.766 272.187 321.272 272.011 320.868 271.698C320.464 271.384 320.171 270.95 320.031 270.458C319.892 269.966 319.913 269.443 320.092 268.964L323.714 259.267L321.518 256.118L329.172 251.432L337.852 261.907Z" fill="#2F2E41"/>
<path d="M357.398 284.844L0.601731 285C0.44192 284.999 0.28897 284.935 0.176293 284.822C0.0636155 284.708 0.000366211 284.555 0.000366211 284.395C0.000366211 284.235 0.0636155 284.082 0.176293 283.969C0.28897 283.855 0.44192 283.791 0.601731 283.79L357.398 283.634C357.558 283.635 357.711 283.699 357.824 283.812C357.937 283.926 358 284.079 358 284.239C358 284.399 357.937 284.552 357.824 284.666C357.711 284.779 357.558 284.843 357.398 284.844Z" fill="#CACACA"/>
<path d="M141.443 170.396H31.9705V182.471H141.443V170.396Z" fill="#E6E6E6"/>
<path d="M104.051 155.847L103.681 154.547H103.764C103.993 154.546 104.213 154.454 104.376 154.292C104.538 154.129 104.629 153.909 104.629 153.679C104.629 153.45 104.538 153.23 104.376 153.067C104.213 152.904 103.993 152.813 103.764 152.812C99.8444 151.881 95.7613 151.881 91.8417 152.812C91.6127 152.812 91.3929 152.903 91.2305 153.064C91.068 153.226 90.9761 153.445 90.9747 153.674C90.9733 153.903 91.0627 154.123 91.2232 154.286C91.3838 154.45 91.6024 154.543 91.8314 154.546L91.4789 155.847C88.7434 159.651 90.0816 165.969 91.4789 172.324H104.051C105.632 165.397 106.829 158.82 104.051 155.847Z" fill="#E6E6E6"/>
<path d="M97.8027 166.037C99.7182 166.037 101.271 164.484 101.271 162.568C101.271 160.652 99.7182 159.099 97.8027 159.099C95.8873 159.099 94.3345 160.652 94.3345 162.568C94.3345 164.484 95.8873 166.037 97.8027 166.037Z" fill="white"/>
<path d="M113.536 137.287L113.166 135.987H113.249C113.479 135.987 113.699 135.895 113.862 135.733C114.025 135.57 114.116 135.349 114.116 135.119C114.116 134.889 114.025 134.669 113.862 134.506C113.699 134.344 113.479 134.252 113.249 134.252C109.329 133.321 105.246 133.321 101.327 134.252C101.098 134.252 100.878 134.343 100.715 134.504C100.553 134.666 100.461 134.885 100.46 135.114C100.458 135.343 100.548 135.563 100.708 135.726C100.869 135.89 101.087 135.983 101.316 135.986L100.964 137.287C98.2284 141.091 99.5666 147.409 100.964 153.764H113.536C115.117 146.837 116.314 140.259 113.536 137.287Z" fill="#E6E6E6"/>
<path d="M107.288 147.477C109.203 147.477 110.756 145.924 110.756 144.008C110.756 142.092 109.203 140.539 107.288 140.539C105.372 140.539 103.82 142.092 103.82 144.008C103.82 145.924 105.372 147.477 107.288 147.477Z" fill="white"/>
<path d="M95.2483 137.287L94.8776 135.987H94.9609C95.1908 135.987 95.4114 135.895 95.574 135.733C95.7366 135.57 95.8279 135.349 95.8279 135.119C95.8279 134.889 95.7366 134.669 95.574 134.506C95.4114 134.344 95.1908 134.252 94.9609 134.252C91.0414 133.321 86.9583 133.321 83.0387 134.252C82.8097 134.252 82.59 134.343 82.4275 134.504C82.265 134.666 82.1731 134.885 82.1717 135.114C82.1703 135.343 82.2597 135.563 82.4202 135.726C82.5808 135.89 82.7994 135.983 83.0284 135.986L82.6759 137.287C79.9404 141.091 81.2786 147.409 82.6759 153.764H95.2483C96.8288 146.837 98.0256 140.259 95.2483 137.287Z" fill="#E6E6E6"/>
<path d="M88.9999 147.477C90.9154 147.477 92.4681 145.924 92.4681 144.008C92.4681 142.092 90.9154 140.539 88.9999 140.539C87.0844 140.539 85.5316 142.092 85.5316 144.008C85.5316 145.924 87.0844 147.477 88.9999 147.477Z" fill="white"/>
<path d="M87.1204 119.505L86.7497 118.204H86.833C87.0629 118.204 87.2835 118.113 87.4461 117.95C87.6087 117.788 87.7 117.567 87.7 117.337C87.7 117.107 87.6087 116.887 87.4461 116.724C87.2835 116.561 87.0629 116.47 86.833 116.47C82.9134 115.539 78.8303 115.539 74.9108 116.47C74.6818 116.47 74.462 116.561 74.2996 116.722C74.1371 116.883 74.0451 117.103 74.0438 117.332C74.0424 117.561 74.1318 117.781 74.2923 117.944C74.4528 118.108 74.6715 118.201 74.9005 118.203L74.548 119.505C71.8125 123.309 73.1507 129.627 74.548 135.982H87.1204C88.7009 129.055 89.8977 122.477 87.1204 119.505Z" fill="#E6E6E6"/>
<path d="M80.872 129.695C82.7874 129.695 84.3402 128.142 84.3402 126.226C84.3402 124.31 82.7874 122.757 80.872 122.757C78.9565 122.757 77.4037 124.31 77.4037 126.226C77.4037 128.142 78.9565 129.695 80.872 129.695Z" fill="white"/>
<path d="M105.408 119.505L105.038 118.204H105.121C105.351 118.204 105.571 118.113 105.734 117.95C105.897 117.788 105.988 117.567 105.988 117.337C105.988 117.107 105.897 116.887 105.734 116.724C105.571 116.561 105.351 116.47 105.121 116.47C101.201 115.539 97.1183 115.539 93.1988 116.47C92.9697 116.47 92.75 116.561 92.5875 116.722C92.4251 116.883 92.3331 117.103 92.3317 117.332C92.3304 117.561 92.4197 117.781 92.5803 117.944C92.7408 118.108 92.9595 118.201 93.1885 118.203L92.8359 119.505C90.1004 123.309 91.4387 129.627 92.8359 135.982H105.408C106.989 129.055 108.186 122.477 105.408 119.505Z" fill="#E6E6E6"/>
<path d="M99.1598 129.695C101.075 129.695 102.628 128.142 102.628 126.226C102.628 124.31 101.075 122.757 99.1598 122.757C97.2443 122.757 95.6915 124.31 95.6915 126.226C95.6915 128.142 97.2443 129.695 99.1598 129.695Z" fill="white"/>
<path d="M76.4524 137.287L76.0817 135.987H76.165C76.3949 135.987 76.6155 135.895 76.7781 135.733C76.9407 135.57 77.032 135.349 77.032 135.119C77.032 134.889 76.9407 134.669 76.7781 134.506C76.6155 134.344 76.3949 134.252 76.165 134.252C72.2455 133.321 68.1624 133.321 64.2428 134.252C64.0138 134.252 63.7941 134.343 63.6316 134.504C63.4691 134.666 63.3772 134.885 63.3758 135.114C63.3744 135.343 63.4638 135.563 63.6243 135.726C63.7849 135.89 64.0035 135.983 64.2325 135.986L63.88 137.287C61.1445 141.091 62.4828 147.409 63.88 153.764H76.4524C78.0329 146.837 79.2297 140.259 76.4524 137.287Z" fill="#E6E6E6"/>
<path d="M70.204 147.477C72.1195 147.477 73.6722 145.924 73.6722 144.008C73.6722 142.092 72.1195 140.539 70.204 140.539C68.2885 140.539 66.7357 142.092 66.7357 144.008C66.7357 145.924 68.2885 147.477 70.204 147.477Z" fill="white"/>
<path d="M243.584 86.9893L243.213 85.6885H243.297C243.527 85.6885 243.747 85.5972 243.91 85.4346C244.072 85.2719 244.164 85.0514 244.164 84.8214C244.164 84.5914 244.072 84.3708 243.91 84.2082C243.747 84.0456 243.527 83.9542 243.297 83.9542C239.377 83.0232 235.294 83.0232 231.374 83.9542C231.145 83.9541 230.926 84.0446 230.763 84.2061C230.601 84.3675 230.509 84.5867 230.507 84.8157C230.506 85.0448 230.595 85.265 230.756 85.4284C230.916 85.5918 231.135 85.6849 231.364 85.6875L231.012 86.9893C228.276 90.7929 229.614 97.111 231.012 103.466H243.584C245.165 96.5394 246.361 89.9614 243.584 86.9893Z" fill="#CCCCCC"/>
<path d="M237.335 97.1786C239.251 97.1786 240.804 95.6256 240.804 93.7099C240.804 91.7942 239.251 90.2412 237.335 90.2412C235.42 90.2412 233.867 91.7942 233.867 93.7099C233.867 95.6256 235.42 97.1786 237.335 97.1786Z" fill="white"/>
<path d="M66.5234 155.847L66.1527 154.547H66.236C66.4656 154.546 66.6856 154.454 66.8478 154.292C67.0099 154.129 67.101 153.909 67.101 153.679C67.101 153.45 67.0099 153.23 66.8478 153.067C66.6856 152.904 66.4656 152.813 66.236 152.812C62.3165 151.881 58.2334 151.881 54.3139 152.812C54.0849 152.812 53.8651 152.903 53.7026 153.064C53.5402 153.226 53.4482 153.445 53.4468 153.674C53.4455 153.903 53.5348 154.123 53.6954 154.286C53.8559 154.45 54.0746 154.543 54.3036 154.546L53.951 155.847C51.2156 159.651 52.5538 165.969 53.951 172.324H66.5235C68.1039 165.397 69.3007 158.82 66.5234 155.847Z" fill="#E6E6E6"/>
<path d="M60.2749 166.037C62.1904 166.037 63.7432 164.484 63.7432 162.568C63.7432 160.652 62.1904 159.099 60.2749 159.099C58.3594 159.099 56.8066 160.652 56.8066 162.568C56.8066 164.484 58.3594 166.037 60.2749 166.037Z" fill="white"/>
<path d="M85.3193 155.847L84.9486 154.547H85.0319C85.2615 154.546 85.4815 154.454 85.6437 154.292C85.8058 154.129 85.8969 153.909 85.8969 153.679C85.8969 153.45 85.8058 153.23 85.6437 153.067C85.4815 152.904 85.2615 152.813 85.0319 152.812C81.1124 151.881 77.0293 151.881 73.1098 152.812C72.8808 152.812 72.661 152.903 72.4985 153.064C72.3361 153.226 72.2441 153.445 72.2427 153.674C72.2414 153.903 72.3307 154.123 72.4913 154.286C72.6518 154.45 72.8705 154.543 73.0995 154.546L72.7469 155.847C70.0115 159.651 71.3497 165.969 72.7469 172.324H85.3194C86.8998 165.397 88.0966 158.82 85.3193 155.847Z" fill="#E6E6E6"/>
<path d="M79.0708 166.037C80.9863 166.037 82.5391 164.484 82.5391 162.568C82.5391 160.652 80.9863 159.099 79.0708 159.099C77.1553 159.099 75.6025 160.652 75.6025 162.568C75.6025 164.484 77.1553 166.037 79.0708 166.037Z" fill="white"/>
<path d="M123.846 155.847L123.476 154.547H123.559C123.788 154.546 124.008 154.454 124.171 154.292C124.333 154.129 124.424 153.909 124.424 153.679C124.424 153.45 124.333 153.23 124.171 153.067C124.008 152.904 123.788 152.813 123.559 152.812C119.639 151.881 115.556 151.881 111.637 152.812C111.408 152.812 111.188 152.903 111.025 153.064C110.863 153.226 110.771 153.445 110.77 153.674C110.768 153.903 110.858 154.123 111.018 154.286C111.179 154.45 111.397 154.543 111.626 154.546L111.274 155.847C108.538 159.651 109.877 165.969 111.274 172.324H123.846C125.427 165.397 126.623 158.82 123.846 155.847Z" fill="#E6E6E6"/>
<path d="M117.598 166.037C119.513 166.037 121.066 164.484 121.066 162.568C121.066 160.652 119.513 159.099 117.598 159.099C115.682 159.099 114.129 160.652 114.129 162.568C114.129 164.484 115.682 166.037 117.598 166.037Z" fill="white"/>
<path d="M297.73 107.094L263.247 104.77C263.247 104.77 255.257 123.229 255.385 125.669C255.513 128.109 258.81 127.374 255.384 131.044C251.957 134.713 251.957 129.633 251.957 134.713C251.957 139.794 238.104 252.584 244.2 253.6C254.868 255.124 254.36 253.092 254.36 253.092L271.1 200.638C271.1 200.638 301.325 244.83 310.748 242.422C320.171 240.015 318.368 236.834 318.368 236.834L298.178 195.846C298.178 195.846 295.168 195.841 295.592 192.458C296.016 189.076 293.447 189.648 293.447 189.648C293.447 189.648 289.589 188.445 291.025 186.474C292.46 184.503 288.65 183.363 288.65 183.363L299.77 140.794C299.77 140.794 307.689 122.406 297.73 107.094Z" fill="#2F2E41"/>
<path d="M294.688 36.6814L282.82 37.2827L278.858 43.9585C278.858 43.9585 267.568 44.7866 267.568 53.9317C267.568 63.0768 259.862 59.0972 263.461 70.7402C267.06 82.3832 267.88 84.6274 264.676 86.2996C261.472 87.9718 256.95 87.6118 260.989 90.3321C265.028 93.0524 266.552 94.0686 265.536 95.0847C264.52 96.1008 284.368 88.1063 295.78 93.1197C295.78 93.1197 298.972 90.7028 298.256 88.5752C297.54 86.4477 297.15 87.2703 298.361 85.3348C299.572 83.3993 312.425 49.7351 312.425 49.7351C312.425 49.7351 309.816 44.8833 304.186 45.089C298.556 45.2947 294.688 36.6814 294.688 36.6814Z" fill="#D8C0D8"/>
<path d="M336.33 149.743L315.345 161.132L299.232 131.437C297.722 128.654 297.379 125.385 298.279 122.349C299.179 119.313 301.248 116.759 304.031 115.248C306.813 113.738 310.082 113.395 313.118 114.295C316.153 115.195 318.707 117.264 320.217 120.047L336.33 149.743ZM315.754 159.754L334.953 149.334L319.324 120.532C318.64 119.271 317.715 118.157 316.6 117.254C315.486 116.35 314.204 115.676 312.829 115.268C311.454 114.86 310.012 114.727 308.585 114.876C307.158 115.026 305.775 115.455 304.514 116.139C303.253 116.824 302.14 117.75 301.237 118.865C300.334 119.979 299.659 121.261 299.252 122.637C298.844 124.012 298.712 125.455 298.861 126.881C299.011 128.308 299.441 129.692 300.125 130.952L315.754 159.754Z" fill="#3F3D56"/>
<path d="M354.257 170.939L323.345 187.716C322.6 188.123 321.746 188.281 320.905 188.168C320.065 188.054 319.282 187.676 318.671 187.087L297.797 167.048C297.344 166.612 296.999 166.076 296.792 165.482C296.585 164.888 296.52 164.254 296.604 163.631C296.688 163.007 296.918 162.413 297.275 161.895C297.632 161.377 298.106 160.951 298.659 160.651L345.021 135.488C345.574 135.188 346.189 135.023 346.818 135.006C347.447 134.988 348.07 135.12 348.639 135.389C349.207 135.658 349.703 136.058 350.088 136.555C350.473 137.053 350.735 137.634 350.853 138.252L356.276 166.677C356.437 167.51 356.328 168.372 355.965 169.139C355.602 169.905 355.003 170.536 354.257 170.939Z" fill="#EB5757"/>
<path d="M321.961 148.293L318.836 149.989L321.743 155.348L324.869 153.651L321.961 148.293Z" fill="#3F3D56"/>
<path d="M313.876 90.1511L312.969 58.2884C312.926 56.9385 312.355 55.6596 311.378 54.7274C310.401 53.7952 309.097 53.2846 307.747 53.3057C307.048 53.3166 306.359 53.4697 305.722 53.7556C305.084 54.0415 304.512 54.4542 304.039 54.9686C303.567 55.483 303.204 56.0882 302.972 56.7475C302.741 57.4068 302.647 58.1062 302.695 58.8032L304.652 91.8719L304.994 112.016C304.151 112.389 303.444 113.013 302.967 113.802C302.491 114.591 302.27 115.508 302.333 116.428C302.395 117.348 302.74 118.226 303.319 118.943C303.899 119.66 304.685 120.181 305.571 120.436C306.457 120.691 307.399 120.667 308.271 120.367C309.143 120.067 309.901 119.506 310.443 118.76C310.985 118.015 311.284 117.12 311.3 116.198C311.316 115.276 311.047 114.372 310.531 113.608L313.876 90.1511Z" fill="#A0616A"/>
<path d="M316.081 64.6977C316.314 64.461 316.463 64.1543 316.505 63.8247C316.547 63.4951 316.479 63.1609 316.313 62.8733C316.114 62.5147 316.033 62.1029 316.08 61.6956C316.089 61.617 316.105 61.5391 316.125 61.4624C316.257 61.0033 316.277 60.519 316.183 60.0507C316.088 59.5823 315.882 59.1437 315.581 58.7722C314.575 57.5635 314.089 55.7338 313.879 54.1027C313.649 52.3178 313.512 50.4937 312.862 48.8158C311.923 46.3954 309.68 44.2384 306.619 45.2708C305.324 45.73 304.227 46.6217 303.513 47.7956C301.986 50.2301 301.97 53.1736 301.981 55.9898L301.432 54.877C301.498 57.9526 300.942 61.0098 299.797 63.8653C300.48 63.7329 300.962 64.6497 300.742 65.3089C300.521 65.9681 299.912 66.4013 299.389 66.8598C298.731 67.4378 298.109 68.2963 298.727 69.1795C298.881 69.3866 299.076 69.5597 299.299 69.6878C299.523 69.816 299.771 69.8965 300.027 69.9243C304.861 70.5528 309.772 70.1747 314.452 68.8139C315.491 68.5111 316.606 68.0906 317.146 67.1528C317.687 66.215 317.164 64.6827 316.081 64.6977Z" fill="#D8C0D8"/>
<path d="M306.077 20.6243C305.397 23.1443 306.179 27.1122 306.474 29.4646C306.789 31.9795 302.43 34.2302 299.936 34.3724C299.997 33.54 299.763 32.7125 299.275 32.0354C299.269 32.8407 299.104 33.6368 298.788 34.3775H277.975C275.354 29.4442 273.124 22.7023 275.531 15.7317C275.654 14.3317 276.186 12.999 277.063 11.9008C277.94 10.8026 279.121 9.98779 280.459 9.55872L291.808 5.92609C296.283 5.92609 301.775 6.56116 304.249 9.89404C305.344 11.4285 306.077 13.191 306.394 15.0494C306.71 16.9077 306.602 18.8137 306.077 20.6243Z" fill="#2F2E41"/>
<path d="M287.119 33.8694C293.572 33.8694 298.803 28.6377 298.803 22.184C298.803 15.7303 293.572 10.4986 287.119 10.4986C280.666 10.4986 275.435 15.7303 275.435 22.184C275.435 28.6377 280.666 33.8694 287.119 33.8694Z" fill="#A0616A"/>
<path d="M301.851 19.1357V21.676H291.742C291.844 21.1856 291.845 20.6792 291.742 20.1888C291.64 19.6983 291.438 19.2342 291.147 18.8257C291.139 19.8199 290.892 20.7976 290.426 21.676C284.581 23.4047 279.674 23.3716 275.654 21.676C275.358 21.676 275.066 21.6177 274.793 21.5046C274.519 21.3915 274.271 21.2257 274.062 21.0166C273.853 20.8076 273.688 20.5594 273.574 20.2863C273.461 20.0132 273.403 19.7205 273.403 19.4248C273.403 11.6363 279.542 5.07356 287.327 4.91304C289.22 4.87295 291.102 5.21121 292.862 5.90797C294.623 6.60474 296.226 7.64599 297.579 8.97068C298.932 10.2954 300.006 11.8768 300.74 13.6223C301.473 15.3678 301.851 17.2422 301.851 19.1357V19.1357Z" fill="#2F2E41"/>
<path d="M299.859 1.92191C298.654 1.35825 297.298 1.11938 296.348 0L296.706 1.89627C294.753 0.851023 292.481 0.567191 290.331 1.09963C289.699 1.22625 289.115 1.52909 288.647 1.9732C288.388 2.24674 288.194 2.57498 288.078 2.93369C287.963 3.29241 287.929 3.67247 287.98 4.04585C288.036 4.36896 288.159 4.67682 288.341 4.94978C288.523 5.22275 288.759 5.45482 289.036 5.63116C289.533 5.91296 290.078 6.09872 290.644 6.17872C292.995 6.65677 295.347 7.1348 297.698 7.61283C298.577 7.87116 299.507 7.90086 300.4 7.69909C300.889 7.53203 301.318 7.22593 301.635 6.81836C301.952 6.41079 302.144 5.91948 302.185 5.40476C302.319 3.78568 301.064 2.48555 299.859 1.92191Z" fill="#2F2E41"/>
<path d="M109.291 90.7729L53.5997 108.746C53.1033 108.906 52.5639 108.862 52.0998 108.624C51.6356 108.387 51.2848 107.974 51.1241 107.478L44.0799 85.6465C43.9204 85.15 43.9642 84.6105 44.2019 84.1464C44.4395 83.6822 44.8516 83.3313 45.3476 83.1705L101.039 65.1972C101.535 65.0377 102.074 65.0815 102.538 65.3192C103.003 65.5569 103.353 65.969 103.514 66.4651L110.558 88.297C110.718 88.7935 110.674 89.3329 110.436 89.7971C110.199 90.2613 109.787 90.6122 109.291 90.7729Z" fill="#F2F2F2"/>
<path d="M95.917 93.7708L62.0545 104.699C59.5302 105.511 56.7871 105.288 54.427 104.079C52.0669 102.871 50.2826 100.775 49.4655 98.2522L48.1267 94.103C47.3153 91.5784 47.5383 88.835 48.7468 86.4746C49.9553 84.1142 52.0507 82.3296 54.5731 81.5124L92.5842 69.2449C95.1086 68.4334 97.8517 68.6565 100.212 69.8652C102.572 71.0738 104.356 73.1694 105.173 75.6922C106.338 79.3173 106.018 83.2565 104.283 86.6457C102.548 90.035 99.5389 92.5974 95.917 93.7708Z" fill="white"/>
<path d="M81.717 79.6527L59.3335 86.8766C59.2701 86.8971 59.2033 86.9049 59.1369 86.8995C59.0705 86.8941 59.0058 86.8757 58.9466 86.8454C58.8873 86.815 58.8346 86.7733 58.7914 86.7225C58.7482 86.6718 58.7155 86.613 58.695 86.5496C58.6746 86.4862 58.6668 86.4194 58.6722 86.353C58.6775 86.2866 58.6959 86.2219 58.7263 86.1626C58.7566 86.1033 58.7984 86.0506 58.8491 86.0075C58.8998 85.9643 58.9586 85.9316 59.022 85.9111L81.4055 78.6872C81.5334 78.6463 81.6723 78.6578 81.7918 78.7191C81.9112 78.7805 82.0015 78.8867 82.0427 79.0146C82.084 79.1424 82.0728 79.2814 82.0118 79.401C81.9507 79.5206 81.8447 79.6111 81.717 79.6527Z" fill="#E6E6E6"/>
<path d="M94.7099 81.1467L60.9954 92.0274C60.932 92.048 60.8651 92.0559 60.7986 92.0506C60.7322 92.0453 60.6674 92.027 60.608 91.9967C60.5486 91.9663 60.4958 91.9246 60.4525 91.8738C60.4093 91.823 60.3765 91.7642 60.356 91.7007C60.3356 91.6372 60.3278 91.5704 60.3332 91.5039C60.3386 91.4374 60.357 91.3726 60.3875 91.3133C60.4179 91.254 60.4598 91.2012 60.5107 91.1581C60.5615 91.1149 60.6204 91.0823 60.6839 91.0619L94.3983 80.1811C94.5263 80.1398 94.6655 80.1511 94.7853 80.2124C94.905 80.2737 94.9955 80.3801 95.0368 80.5081C95.0781 80.6361 95.0669 80.7754 95.0056 80.8951C94.9442 81.0149 94.8379 81.1053 94.7099 81.1467Z" fill="#E6E6E6"/>
<path d="M96.3718 86.2974L62.6574 97.1781C62.594 97.1986 62.5272 97.2063 62.4608 97.201C62.3944 97.1956 62.3297 97.1772 62.2704 97.1469C62.2111 97.1165 62.1584 97.0748 62.1152 97.024C62.0721 96.9733 62.0394 96.9145 62.0189 96.8511C61.9984 96.7877 61.9907 96.7209 61.996 96.6545C62.0014 96.5881 62.0198 96.5234 62.0501 96.4641C62.0805 96.4048 62.1222 96.3521 62.173 96.3089C62.2237 96.2658 62.2824 96.233 62.3458 96.2126L96.0603 85.3318C96.1882 85.2908 96.3272 85.3022 96.4467 85.3636C96.5663 85.4249 96.6566 85.5312 96.6978 85.6591C96.7391 85.787 96.7279 85.926 96.6668 86.0457C96.6057 86.1653 96.4996 86.2559 96.3718 86.2974Z" fill="#E6E6E6"/>
<path d="M96.3718 86.2974L62.6574 97.1781C62.594 97.1986 62.5272 97.2063 62.4608 97.201C62.3944 97.1956 62.3297 97.1772 62.2704 97.1469C62.2111 97.1165 62.1584 97.0748 62.1152 97.024C62.0721 96.9733 62.0394 96.9145 62.0189 96.8511C61.9984 96.7877 61.9907 96.7209 61.996 96.6545C62.0014 96.5881 62.0198 96.5234 62.0501 96.4641C62.0805 96.4048 62.1222 96.3521 62.173 96.3089C62.2237 96.2658 62.2824 96.233 62.3458 96.2126L96.0603 85.3318C96.1882 85.2908 96.3272 85.3022 96.4467 85.3636C96.5663 85.4249 96.6566 85.5312 96.6978 85.6591C96.7391 85.787 96.7279 85.926 96.6668 86.0457C96.6057 86.1653 96.4996 86.2559 96.3718 86.2974Z" fill="#E6E6E6"/>
<path d="M99.137 74.3907C102.378 74.3907 105.005 71.7632 105.005 68.522C105.005 65.2808 102.378 62.6533 99.137 62.6533C95.8962 62.6533 93.269 65.2808 93.269 68.522C93.269 71.7632 95.8962 74.3907 99.137 74.3907Z" fill="#EB5757"/>
<path d="M98.9308 70.8762C98.852 70.8762 98.7743 70.8578 98.7039 70.8226C98.6335 70.7874 98.5722 70.7362 98.525 70.6732L97.2808 69.014C97.2406 68.9608 97.2114 68.9001 97.1947 68.8354C97.178 68.7708 97.1742 68.7036 97.1836 68.6375C97.193 68.5714 97.2152 68.5079 97.2492 68.4504C97.2832 68.393 97.3281 68.3428 97.3815 68.3028C97.4349 68.2627 97.4956 68.2336 97.5603 68.2171C97.6249 68.2006 97.6922 68.197 97.7582 68.2065C97.8243 68.216 97.8878 68.2385 97.9452 68.2726C98.0025 68.3067 98.0526 68.3518 98.0925 68.4052L98.9065 69.4906L100.997 66.3543C101.072 66.2424 101.188 66.1647 101.32 66.1383C101.452 66.1119 101.589 66.139 101.701 66.2136C101.813 66.2883 101.89 66.4043 101.917 66.5363C101.943 66.6682 101.916 66.8053 101.841 66.9172L99.3529 70.6503C99.3079 70.7178 99.2474 70.7735 99.1764 70.8128C99.1054 70.8521 99.026 70.8738 98.9449 70.876L98.9308 70.8762Z" fill="white"/>
</g>
<defs>
<clipPath id="clip0_3_365">
<rect width="358" height="285" fill="white"/>
</clipPath>
</defs>
</svg>
