<?xml version="1.0" encoding="utf-8"?>
<!-- Generator: Adobe Illustrator 25.0.0, SVG Export Plug-In . SVG Version: 6.00 Build 0)  -->
<svg version="1.1" id="Layer_1" xmlns="http://www.w3.org/2000/svg" xmlns:xlink="http://www.w3.org/1999/xlink" x="0px" y="0px"
	 viewBox="0 0 896 748" style="enable-background:new 0 0 896 748;" xml:space="preserve">
<style type="text/css">
	.st0{fill:#F2F2F2;}
	.st1{fill:#A0616A;}
	.st2{fill:#E8A3A3;}
	.st3{fill:#2F2E41;}
	.st4{fill:#FFB8B8;}
	.st5{fill:#C0D8C0;}
	.st6{fill:#3F3D56;}
</style>
<rect x="431.2" y="113.9" class="st0" width="2" height="18.5"/>
<rect x="556.2" y="158.9" class="st0" width="2" height="18.5"/>
<rect x="542.2" y="622.9" class="st0" width="2" height="18.5"/>
<rect x="571.2" y="469.9" class="st0" width="2" height="18.5"/>
<path class="st1" d="M443.4,61.9c0,0,14.6,41.6,5.6,48s30.4,58.7,30.4,58.7l47.2-12.8L500.8,112c0,0-3.4-43.7-3.4-50.1
	S443.4,61.9,443.4,61.9z"/>
<path class="st2" d="M443.4,61.9c0,0,14.6,41.6,5.6,48s30.4,58.7,30.4,58.7l47.2-12.8L500.8,112c0,0-3.4-43.7-3.4-50.1
	S443.4,61.9,443.4,61.9z"/>
<path class="st3" d="M418.9,358.5c0,0-4.3,53.3,0,81.1s10.7,104.5,10.7,104.5s0,145.1,23.5,147.2s40.5,4.3,42.7-4.3
	s-10.7-12.8-4.3-17.1s8.5-19.2,0-36.3s0-189.9,0-189.9L532,552.6c0,0,4.3,89.6,8.5,102.4s-4.3,36.3,10.7,38.4s32-10.7,40.5-14.9
	s-12.8-4.3-8.5-6.4s17.1-8.5,12.8-10.7s-8.5-104.5-8.5-104.5s-11.7-218.7-26.7-227.2s-24.5,6.2-24.5,6.2L418.9,358.5z"/>
<path class="st3" d="M457.3,682.8v17.1c0,0-19.2,46.4,0,46.4s34.1,4.8,34.1-1.6V687L457.3,682.8z"/>
<path class="st3" d="M583.2,682.7v17.1c0,0,19.2,46.4,0,46.4S549,751,549,744.6V687L583.2,682.7z"/>
<circle class="st4" cx="473.3" cy="54.4" r="38.4"/>
<path class="st5" d="M461.5,125.9c0,0,10.7,32,27.7,25.6l17.1-6.4l29.9,204.8c0,0-23.5,34.1-57.6,12.8S461.5,125.9,461.5,125.9z"/>
<path class="st6" d="M491.4,119.5l9.6-20.3c0,0,56.5,26.7,65.1,35.2c8.5,8.5,8.5,21.3,8.5,21.3l-14.9,53.3c0,0,4.3,117.4,4.3,121.6
	s14.9,27.7,4.3,19.2s-12.8-17.1-21.3-4.3s-27.7,27.7-27.7,27.7L491.4,119.5z"/>
<path class="st4" d="M566.1,273.1l-6.4,59.7c0,0-38.4,34.1-29.9,36.3s12.8-6.4,12.8-6.4s14.9,14.9,23.5,6.4s29.9-89.6,29.9-89.6
	L566.1,273.1z"/>
<path class="st3" d="M474.1,0.1c-8.5-0.3-17.6-0.5-24.8,4.1c-3.3,2.3-6.2,5.1-8.6,8.4c-7,8.8-13,20-10.4,30.9l3-1.2
	c0,2.9-0.7,5.8-1.9,8.5c0.4-1.2,1.8,0.8,1.5,2l-3.3,10.9c5.5-2,12.3,2.1,13.1,7.8c0.4-12.7,1.7-27.2,12-34.6
	c5.2-3.7,11.7-4.9,18-5.9c5.8-0.9,11.9-1.8,17.5,0.1s10.3,7.6,9.1,13.4c2.6-0.9,5.4,0.9,6.7,3.3s1.3,5.2,1.4,8
	c2.7,1.9,5.9-1.9,7-5.1c2.6-7.4,4.9-15.3,3.5-23.1s-7.7-15.1-15.6-15.2c1-1,1.5-2.4,1.4-3.8l-6.5-0.5c1.6-0.2,3.2-1,4.3-2.3
	C498.8,8.7,478.3,0.3,474.1,0.1z"/>
<path class="st6" d="M472.2,113.1c0,0-17.4-17-23.6-16s-14.8,16-14.8,16s-51.2,17.1-49.1,34.1c2.1,17.1,25.6,100.3,25.6,100.3
	s19.2,100.3,2.1,111s81.1,38.4,83.2,25.6s6.4-140.8,0-160S472.2,113.1,472.2,113.1z"/>
<path class="st6" d="M546.9,147.2h26.4c0,0,18.4,81.1,20.6,89.6s6.4,49.1,4.3,49.1s-44.8-8.5-44.8-2.1L546.9,147.2z"/>
<path class="st0" d="M546,348H445c-9.9-45.3-10.7-89.1,0-131h101C529.7,258.1,528.7,301.6,546,348z"/>
<path class="st4" d="M403.9,292.3l29.9,12.8c0,0,57.6,8.5,57.6-14.9s-57.6-10.7-57.6-10.7l-19.2-6.1L403.9,292.3z"/>
<path class="st6" d="M410.3,134.4l-25.6,6.4l-19.2,113.1c0,0-6.4,29.9,4.3,32s40.5,19.2,40.5,19.2s4.3-32,12.8-32L401.8,256
	l12.8-74.7L410.3,134.4z"/>
</svg>
