<svg width="48" height="48" viewBox="0 0 48 48" fill="none" xmlns="http://www.w3.org/2000/svg">
<path d="M22.8796 0.0250626C19.5857 0.428593 17.1927 1.53594 14.8747 3.72251L13.9832 4.5671L13.4952 4.47326C12.3972 4.2668 10.2857 4.3888 8.87807 4.75479C8.10855 4.95187 6.78534 5.50555 6.03459 5.93723C0.535327 9.15608 -1.54801 15.9222 1.22039 21.6092C2.22452 23.6738 3.97002 25.5694 5.86567 26.658L6.54135 27.0428L6.55073 35.5357C6.55073 44.8731 6.54135 44.723 7.12318 45.7365C7.68625 46.7219 8.71853 47.5289 9.78835 47.8386C10.1825 47.9512 12.3878 47.8386 24.0245 47.8386C37.1908 47.8386 37.8384 47.8292 38.317 47.6697C39.4337 47.2756 40.3346 46.6937 40.8883 45.7365C41.4701 44.723 41.4607 44.8731 41.4607 35.5357V27.0428L42.1458 26.6486C48.2175 23.1201 49.8692 14.9181 45.665 9.24054C43.3752 6.14368 39.8935 4.37942 36.1022 4.37942C35.5016 4.37942 34.7884 4.41695 34.5163 4.47326L34.0283 4.5671L33.1368 3.72251C31.1473 1.84563 28.8481 0.644436 26.38 0.203369C25.5448 0.0532188 23.4896 -0.0500145 22.8796 0.0250626ZM26.2674 2.41809C29.9648 3.15007 33.1368 5.98415 34.3567 9.66284C34.6477 10.5074 34.8917 11.8213 34.8917 12.4969C34.8917 13.182 35.0418 13.6231 35.3703 13.8952C35.9427 14.3832 36.8342 14.0829 37.0407 13.3415C37.1439 12.9474 37.0219 11.3708 36.8061 10.3385C36.609 9.38131 36.1867 8.18948 35.7269 7.26043L35.3609 6.53783H36.1679C38.3076 6.53783 40.6255 7.41058 42.371 8.87455C43.7318 10.0101 45.0174 12.0277 45.496 13.7638C46.7066 18.2214 44.6233 22.9324 40.4754 25.0908C39.2272 25.7383 39.3492 25.0157 39.3211 31.5097L39.3023 39.2894H24.0433H8.75607L8.70915 31.491C8.65284 25.0251 8.78422 25.7383 7.54548 25.0908C3.38819 22.9324 1.30485 18.2308 2.51544 13.7638C2.99404 12.0277 4.27971 10.0101 5.64045 8.87455C7.38595 7.41058 9.7039 6.53783 11.8435 6.53783H12.6506L12.2846 7.26043C11.8248 8.18948 11.4025 9.38131 11.2054 10.3385C10.9896 11.3708 10.8676 12.9474 10.9708 13.3415C11.1772 14.0829 12.0688 14.3832 12.6412 13.8952C12.9697 13.6231 13.1198 13.182 13.1198 12.4969C13.1198 11.8213 13.3638 10.5074 13.6547 9.66284C14.4993 7.11966 16.3293 4.88617 18.6754 3.55359C20.8807 2.29607 23.5834 1.88317 26.2674 2.41809ZM39.2836 41.7106C39.2554 44.0942 39.2554 44.1318 39.0114 44.5916C38.7111 45.1734 38.1387 45.6239 37.5193 45.7553C36.8436 45.896 11.1679 45.896 10.4922 45.7553C9.87282 45.6239 9.30037 45.1734 9.00006 44.5916C8.75607 44.1318 8.75607 44.0942 8.72792 41.7106H8.69976L24.0245 41.7294L39.3117 41.7106H39.2836Z" fill="black" fill-opacity="0.15"/>
<path d="M11.2117 19.7244C11.0521 19.8558 10.8926 20.0998 10.8457 20.2687C10.6486 20.9538 11.0615 22.4834 11.8498 24.06C12.685 25.7117 14.1584 27.8044 14.6933 28.0766C15.0874 28.283 15.5754 28.1704 15.9132 27.8138C16.298 27.4009 16.2792 26.8753 15.8475 26.2747C13.9801 23.6753 13.1261 21.9955 12.9384 20.569C12.807 19.6024 11.8873 19.152 11.2117 19.7244Z" fill="black" fill-opacity="0.15"/>
<path d="M23.1674 19.7901C22.9422 20.0153 22.839 20.2218 22.7921 20.5221C22.7639 20.7473 22.7451 22.399 22.7639 24.1914C22.7921 27.3164 22.8014 27.4572 22.9891 27.7105C23.0924 27.8513 23.3457 28.0296 23.5522 28.1047C23.8713 28.2173 23.9651 28.2079 24.2654 28.0859C24.9505 27.795 24.9505 27.8138 24.9787 24.1726C24.9974 22.3896 24.9787 20.7473 24.9505 20.5221C24.8567 19.9215 24.4062 19.4804 23.8713 19.4804C23.5522 19.4804 23.4208 19.5367 23.1674 19.7901Z" fill="black" fill-opacity="0.15"/>
<path d="M35.1791 19.7901C34.9445 20.0247 34.8506 20.2124 34.8037 20.569C34.616 21.9955 33.762 23.6753 31.8945 26.2747C31.4628 26.8753 31.4441 27.4009 31.8288 27.8138C32.1667 28.1704 32.6547 28.283 33.0488 28.0766C33.5837 27.8044 35.0571 25.7117 35.8923 24.06C36.6806 22.4834 37.0935 20.9538 36.8964 20.2687C36.7744 19.8183 36.324 19.4804 35.8641 19.4804C35.5638 19.4804 35.4231 19.5461 35.1791 19.7901Z" fill="black" fill-opacity="0.15"/>
</svg>
